<?xml version="1.0" encoding="utf-8"?>
<!-- Generator: Adobe Illustrator 21.1.0, SVG Export Plug-In . SVG Version: 6.00 Build 0)  -->
<svg version="1.1" id="Layer_1" xmlns="http://www.w3.org/2000/svg" xmlns:xlink="http://www.w3.org/1999/xlink" x="0px" y="0px"
	 width="674px" height="881.9px" viewBox="0 0 674 881.9" style="enable-background:new 0 0 674 881.9;" xml:space="preserve">
<style type="text/css">
	.st0{fill:none;stroke:#F8F8F9;stroke-width:4.47;stroke-miterlimit:10;}
	.st1{fill:none;stroke:#F8F8F9;stroke-width:4.6556;stroke-miterlimit:10;}
	.st2{fill:none;stroke:#F8F8F9;stroke-width:3.4152;stroke-miterlimit:10;}
</style>
<title>Artboard 1</title>
<g id="bmf">
	<polygon class="st0" points="213.4,414.8 211.8,153.7 409.1,94.2 603.2,153.8 603.2,582.4 464.6,627.7 425.4,615.5 426.5,463.5 
		243.5,405.6 	"/>
	<path class="st0" d="M259.1,139.4l204.1,57.9"/>
	<path class="st0" d="M295.6,149.8l146.7-45.3"/>
	<path class="st0" d="M342.2,163L487,118.3"/>
	<path class="st0" d="M382.5,174.5l145.8-43.4"/>
	<path class="st0" d="M433.3,188.9l146.9-41.8"/>
	<path class="st0" d="M366,128l43.4,14.3"/>
	<path class="st0" d="M457.8,152.1L507,168"/>
	<path class="st0" d="M211.8,153.7l197.3,60.5V458"/>
	<path class="st0" d="M409.1,214.2l194.1-60.5"/>
</g>
<g>
	<path class="st0" d="M351.6,193.1L233.1,423.5"/>
	<path class="st0" d="M387.7,206.5L271.9,439.9"/>
	<path class="st0" d="M253.1,384.6l38.4,15.9"/>
	<path class="st0" d="M270.7,350.4l38.5,14.3"/>
	<path class="st0" d="M288.5,315.9l38.3,13.4"/>
	<path class="st0" d="M305.4,282.8l37.6,13.6"/>
	<path class="st0" d="M324,246.8l37.9,11.7"/>
	<path class="st0" d="M341.5,212.8l37.4,11.5"/>
</g>
<g id="pmf">
	<path class="st0" d="M304.2,737.8v-83.9l122.3-38.5V463.5l-183-57.9L58.9,462v247.9l184.7,56.2L304.2,737.8"/>
	<path class="st0" d="M426.5,463.5l-183,54.5L58.9,462"/>
	<path class="st0" d="M243.5,518v248.2"/>
	<path class="st0" d="M82.2,462l161.2-48.8L405,463l-161.6,46.7L82.2,462z"/>
	<path class="st0" d="M82.2,462l165.4-7.5l86.6,28.9"/>
	<path class="st0" d="M247.7,454.5l-4.2-41.3"/>
</g>
<g id="ladder2">
	<path class="st1" d="M325.4,490l92.2,130.8"/>
	<path class="st1" d="M287.7,504.7l90.7,135.7"/>
	<path class="st1" d="M400.3,596l-40.6,16.4"/>
	<path class="st1" d="M376,561.1l-40.5,15"/>
	<path class="st1" d="M354.9,530.8l-40.7,13.6"/>
	<path class="st1" d="M336.3,505.4l-40.2,11.9"/>
</g>
<g id="psf">
	<path class="st0" d="M304.2,653.9l121.2-38.4l123.3,38.4v92.8l-121.1,38.7l-123.4-37.5V653.9z"/>
	<path class="st0" d="M304.2,653.9L426.4,691l122.3-37.1"/>
	<path class="st0" d="M426.4,690.9v94.4"/>
	<path class="st0" d="M354,653.5c0-11.5,32.7-20.9,73.1-20.9s73.1,9.4,73.1,20.9s-32.7,20.9-73.1,20.9S354,665.1,354,653.5"/>
	<path class="st0" d="M376.7,638.4l43.3,14.9l-6.1,20.4"/>
	<path class="st0" d="M420,653.3l80.2,0.3"/>
</g>
<g id="ladder1">
	<path class="st2" d="M366.4,671.4l-67.9,95.8"/>
	<path class="st2" d="M393.9,682.2l-66.8,99.4"/>
	<path class="st2" d="M311.2,749l29.8,12.1"/>
	<path class="st2" d="M329.1,723.4l29.7,11.1"/>
	<path class="st2" d="M344.6,701.3l29.8,10"/>
	<path class="st2" d="M358.4,682.6l29.5,8.8"/>
</g>
</svg>
