<?xml version="1.0" encoding="utf-8"?>
<!-- Generator: Adobe Illustrator 21.1.0, SVG Export Plug-In . SVG Version: 6.00 Build 0)  -->
<svg version="1.1" id="Layer_1" xmlns="http://www.w3.org/2000/svg" xmlns:xlink="http://www.w3.org/1999/xlink" x="0px" y="0px"
	 width="576px" height="285px" viewBox="0 0 576 285" style="enable-background:new 0 0 576 285;" xml:space="preserve">
<style type="text/css">
	.st0{fill:#FFFFFF;}
	.st1{display:none;}
	.st2{display:inline;fill:#010101;}
	.st3{opacity:0.3;fill:#FFFFFF;enable-background:new    ;}
	.st4{fill:#FDFEFF;}
	.st5{opacity:0.41;fill:#010101;enable-background:new    ;}
	.st6{opacity:0.2;fill:#CDCFD0;enable-background:new    ;}
</style>
<g>
	<path class="st0" d="M307.7,217.1v-10.4h-14.9v19.1h18.5v8.8h-18.5V254h5.4v8.6h-21.1V254h5.4v-47.3h-5.4V198h40.1v19h-9.5V217.1z"
		/>
	<path class="st0" d="M333.6,220.1v34.3h5.2v8h-19.9v-8h5.2v-26.3h-5.2v-8L333.6,220.1L333.6,220.1z M323.7,208.4
		c0-1.4,0.5-2.6,1.6-3.7c1-1,2.2-1.6,3.5-1.6c1.4,0,2.5,0.5,3.5,1.6c1,1,1.6,2.2,1.6,3.7c0,1.4-0.5,2.6-1.6,3.7
		c-1,1-2.2,1.6-3.5,1.6c-1.4,0-2.5-0.5-3.5-1.6C324.2,211,323.7,209.8,323.7,208.4z"/>
	<path class="st0" d="M356.1,207.2v13h6.6v8h-6.6v26.3h6.6v8h-6.2c-3.1,0-5.4-0.7-7-1.9c-2.1-1.6-3.1-4.5-3.1-8.8v-23.6h-5.2v-8h5.2
		v-13H356.1z"/>
</g>
<g class="st1">
	<path class="st2" d="M382,193.3h-3.8v12.1H376v-12.1h-4v-2h10V193.3z"/>
	<path class="st2" d="M395.1,205.4v-7.5l-4.4,6.6l-4.4-6.6v7.5h-2.2v-14.8l6.6,9.9l6.6-9.9v14.8H395.1z"/>
</g>
<rect x="125.8" y="19.2" class="st3" width="108.3" height="123.1"/>
<rect x="17.2" y="19.2" class="st4" width="108.6" height="243.3"/>
<rect x="17.2" y="19.2" class="st5" width="108.6" height="243.3"/>
<rect x="125.9" y="142.2" class="st6" width="108.4" height="120.3"/>
<g>
	<path class="st0" d="M309.9,18.9c3.2,0,5.8,1,7.7,3s2.9,4.6,2.9,8v8.8c0,2.4-0.7,4.4-2,5.7s-3.4,2.2-6.2,2.6
		c3.1,0.7,5.4,1.7,6.7,3.1s2,3.3,2,5.7v12.5c0,3.4-1,6.1-2.9,8c-1.9,2-4.5,3-7.7,3h-31.6V71h5.2V27.4h-5.2V19
		C278.9,18.9,309.9,18.9,309.9,18.9z M293.7,43.4H307c1.2,0,2.2-0.4,2.8-1.1c0.5-0.8,0.9-2,0.9-3.7v-6.2c0-1.7-0.4-3-0.9-3.7
		c-0.5-0.8-1.6-1.2-2.8-1.2h-13.3V43.4L293.7,43.4z M293.7,71.1h13.9c1.2,0,2.2-0.4,2.8-1.2c0.5-0.8,0.9-2.1,0.9-3.7v-9.7
		c0-1.7-0.4-3-0.9-3.7c-0.5-0.8-1.6-1.1-2.8-1.1h-13.9V71.1L293.7,71.1z"/>
	<path class="st0" d="M360.6,39.8V72h4.6v7.7h-25.9c-3.1,0-5.4-0.8-7-2.3c-1.6-1.6-2.4-3.7-2.4-6.7V47.6h-5v-7.7h14v32.2h12.9V47.7
		h-4.7V40L360.6,39.8L360.6,39.8L360.6,39.8z"/>
	<path class="st0" d="M390.2,47.4h-11.6v8.2h12.3c2.6,0,4.6,0.7,5.9,1.9c1.4,1.3,2.1,3.2,2.1,5.6v9c0,2.4-0.7,4.3-2.1,5.6
		c-1.4,1.3-3.4,2-5.9,2h-21.1V67.4h7.9v4.5h12.4V63h-12.5c-2.5,0-4.5-0.7-5.8-2s-2-3.2-2-5.7v-7.8c0-2.5,0.7-4.5,2-5.8s3.3-2,5.9-2
		h20.2V51H390v-3.5L390.2,47.4L390.2,47.4z"/>
	<path class="st0" d="M417,71.9h4.7v7.7h-18.1v-7.7h4.7V47.5h-4.7v-7.7H417V71.9L417,71.9z M407.1,29.5c0-1.3,0.4-2.5,1.4-3.4
		c1-1,2.1-1.4,3.4-1.4s2.4,0.4,3.4,1.4s1.4,2.1,1.4,3.4c0,1.4-0.4,2.5-1.4,3.4c-0.9,0.9-2.1,1.3-3.5,1.3s-2.5-0.4-3.5-1.3
		C407.5,32.1,407.1,30.9,407.1,29.5z"/>
	<path class="st0" d="M477.6,80.2c-2.6,0-4.6-0.7-5.9-2c-1.4-1.3-2.1-3.2-2.1-5.6V48c0-2.5,0.7-4.5,2.1-5.8c1.3-1.3,3.3-2,5.9-2
		h13.2c2.6,0,4.6,0.7,5.9,2c1.4,1.3,2.1,3.3,2.1,5.8v15.3h-20.3v9.1h11.6v-4.6h8.8v4.9c0,2.4-0.7,4.3-2.1,5.6c-1.4,1.3-3.4,2-5.9,2
		h-13.2L477.6,80.2L477.6,80.2z M478.5,48v8.6h11.6V48H478.5z"/>
	<path class="st0" d="M426,71.9h4.7V47.5H426v-7.7h25.7c3.1,0,5.4,0.8,7,2.3c1.6,1.6,2.4,3.7,2.4,6.7V72h5v7.6h-13.9V47.4h-12.9
		v24.4h4.6v7.7h-18.1L426,71.9L426,71.9z"/>
	<path class="st0" d="M524.1,47.4h-11.6v8.2h12.3c2.6,0,4.6,0.7,5.9,1.9c1.4,1.3,2.1,3.2,2.1,5.6v9c0,2.4-0.7,4.3-2.1,5.6
		c-1.4,1.3-3.4,2-5.9,2h-21.1V67.4h7.9v4.5H524V63h-12.5c-2.5,0-4.5-0.7-5.8-2s-2-3.2-2-5.7v-7.8c0-2.5,0.7-4.5,2-5.8s3.3-2,5.9-2
		h20.2V51H524L524.1,47.4L524.1,47.4L524.1,47.4z"/>
	<path class="st0" d="M559.6,47.4H548v8.2h12.3c2.6,0,4.6,0.7,5.9,1.9c1.4,1.3,2.1,3.2,2.1,5.6v9c0,2.4-0.7,4.3-2.1,5.6
		c-1.4,1.3-3.4,2-5.9,2h-21.1V67.4h7.9v4.5h12.5V63h-12.5c-2.5,0-4.5-0.7-5.8-2s-2-3.2-2-5.7v-7.8c0-2.5,0.7-4.5,2-5.8s3.3-2,5.9-2
		h20.2V51h-7.8L559.6,47.4L559.6,47.4L559.6,47.4L559.6,47.4z"/>
</g>
<g>
	<path class="st0" d="M328.2,170.5v-49.3L315,151.9h-7l-14.2-30.7v49.3h-14.9v-8.9h5.5v-45.7h-5.5v-8.8h16.5l15.7,35l15.4-35H343
		v8.8h-5.6v45.7h5.6v8.9H328.2L328.2,170.5z"/>
	<path class="st0" d="M356.6,170.5c-2.8,0-4.7-0.7-6.3-2.1s-2.2-3.3-2.2-5.9v-25.6c0-2.6,0.7-4.6,2.1-6.1c1.4-1.4,3.5-2.1,6.3-2.1
		h13.7c2.8,0,4.9,0.7,6.3,2.1c1.4,1.4,2.2,3.4,2.2,6.1v25.6c0,2.5-0.8,4.5-2.2,5.9c-1.4,1.3-3.5,2.1-6.3,2.1H356.6z M357.6,162.5
		h12.1v-25.6h-12.1V162.5z"/>
	<path class="st0" d="M416.3,162.5h4.9v8h-26.1c-3.2,0-5.7-0.8-7.4-2.4s-2.5-4-2.5-7v-22.9c0-3.1,0.9-5.4,2.5-7s4.1-2.4,7.4-2.4H407
		V115h-5.4v-8h14.8L416.3,162.5L416.3,162.5z M394.5,162.5H407v-25.6h-12.4L394.5,162.5L394.5,162.5z"/>
	<path class="st0" d="M434,170.5c-2.8,0-4.7-0.7-6.3-2c-1.4-1.3-2.2-3.3-2.2-5.8V137c0-2.6,0.7-4.6,2.1-6.1c1.4-1.4,3.5-2.1,6.3-2.1
		h13.7c2.8,0,4.9,0.7,6.3,2.1c1.4,1.4,2.2,3.4,2.2,6.1v16h-21.3v9.5h12.1v-4.9h9.2v5c0,2.5-0.8,4.5-2.2,5.8s-3.5,2-6.3,2L434,170.5
		L434,170.5z M434.8,136.8v9h12.1v-9H434.8z"/>
	<path class="st0" d="M465.5,115.1h-4.9v-8h14.2v55.3h4.9v8.3h-19v-8.3h4.9L465.5,115.1L465.5,115.1z"/>
</g>
</svg>
