<svg xmlns="http://www.w3.org/2000/svg" viewBox="0 0 500 500">
  <defs>
    <style>
      .cls-1,
      .cls-7 {
        fill: none;
        stroke-miterlimit: 10;
      }
      .cls-1 {
        stroke: #c9c9c9;
        stroke-width: 1.25px;
      }
      .cls-2 {
        fill: #e0e0e0;
      }
      .cls-3 {
        fill: #e1e1e1;
      }
      .cls-4 {
        fill: #919191;
      }
      .cls-5 {
        fill: #a8a8a8;
      }
      .cls-6 {
        fill: #fafafa;
      }
      .cls-7 {
        stroke: #fafafa;
        stroke-width: 6px;
      }
    </style>
  </defs>
  <title>company building</title>
  <g id="Layer_1" data-name="Layer 1"><path class="cls-1" d="M434.13,251.34c0,102.8-83.34,186.13-186.13,186.13S61.87,354.14,61.87,251.34,145.2,65.21,248,65.21s186.13,83.33,186.13,186.13"/><path class="cls-2" d="M247.54,133.95a4.63,4.63,0,0,1-4.63-4.63V93.2a4.63,4.63,0,0,1,9.26,0v36.12a4.63,4.63,0,0,1-4.63,4.63"/><rect class="cls-3" x="196.61" y="125.61" width="102.78" height="272.24"/><rect class="cls-4" x="218.83" y="149.69" width="18.52" height="18.52"/><rect class="cls-4" x="256.8" y="149.69" width="18.52" height="18.52"/><rect class="cls-4" x="218.83" y="181.17" width="18.52" height="18.52"/><rect class="cls-4" x="256.8" y="181.17" width="18.52" height="18.52"/><rect class="cls-4" x="218.83" y="212.65" width="18.52" height="18.52"/><rect class="cls-4" x="256.8" y="212.65" width="18.52" height="18.52"/><rect class="cls-4" x="218.83" y="244.14" width="18.52" height="18.52"/><rect class="cls-4" x="256.8" y="244.14" width="18.52" height="18.52"/><rect class="cls-4" x="218.83" y="275.62" width="18.52" height="18.52"/><rect class="cls-4" x="256.8" y="275.62" width="18.52" height="18.52"/><rect class="cls-4" x="218.83" y="307.1" width="18.52" height="18.52"/><rect class="cls-4" x="256.8" y="307.1" width="18.52" height="18.52"/><rect class="cls-5" x="196.61" y="375.63" width="101.86" height="22.22"/></g>
  <g id="circle"><animateTransform attributeName="transform" attributeType="XML" type="rotate" from="0 250 250" to="360 250 250" dur="7s" repeatCount="indefinite" /><polyline class="cls-6" points="299.56 444.63 279.72 462.32 304.96 470.67"/><path class="cls-7" d="M249.73,468.5C130.5,468.32,33.89,371.61,33.89,252.33S130.67,36.17,250.05,36.17,466.21,133,466.21,252.33c0,101.76-70.3,187.08-165,210.07L300,457.22C392.3,434.8,460.88,351.57,460.87,252.33A210.83,210.83,0,1,0,249.73,463.16"/></g>
</svg>
