<?xml version="1.0" encoding="utf-8"?>
<!-- Generator: Adobe Illustrator 21.1.0, SVG Export Plug-In . SVG Version: 6.00 Build 0)  -->
<svg version="1.1" id="Layer_1" xmlns="http://www.w3.org/2000/svg" xmlns:xlink="http://www.w3.org/1999/xlink" x="0px" y="0px"
	 width="500px" height="500px" viewBox="0 0 500 500" style="enable-background:new 0 0 500 500;" xml:space="preserve">
<style type="text/css">
	.st0{fill:none;stroke:#FFFFFF;stroke-width:1.25;stroke-miterlimit:10;}
	.st1{fill:#FFFFFF;}
	.st2{fill:#919191;}
	.st3{fill:#A8A8A8;}
	.st4{fill:none;stroke:#FFFFFF;stroke-width:6;stroke-miterlimit:10;}
</style>
<title>company building</title>
<path class="st0" d="M434.1,251.3c0,102.8-83.3,186.1-186.1,186.1S61.9,354.1,61.9,251.3S145.2,65.2,248,65.2
	S434.1,148.5,434.1,251.3"/>
<path class="st1" d="M247.5,133.9c-2.6,0-4.6-2.1-4.6-4.6c0,0,0,0,0,0V93.2c0-2.6,2.1-4.6,4.6-4.6c2.6,0,4.6,2.1,4.6,4.6v36.1
	C252.2,131.9,250.1,133.9,247.5,133.9C247.5,133.9,247.5,133.9,247.5,133.9"/>
<rect x="196.6" y="125.6" class="st1" width="102.8" height="272.2"/>
<rect x="218.8" y="149.7" class="st2" width="18.5" height="18.5"/>
<rect x="256.8" y="149.7" class="st2" width="18.5" height="18.5"/>
<rect x="218.8" y="181.2" class="st2" width="18.5" height="18.5"/>
<rect x="256.8" y="181.2" class="st2" width="18.5" height="18.5"/>
<rect x="218.8" y="212.6" class="st2" width="18.5" height="18.5"/>
<rect x="256.8" y="212.6" class="st2" width="18.5" height="18.5"/>
<rect x="218.8" y="244.1" class="st2" width="18.5" height="18.5"/>
<rect x="256.8" y="244.1" class="st2" width="18.5" height="18.5"/>
<rect x="218.8" y="275.6" class="st2" width="18.5" height="18.5"/>
<rect x="256.8" y="275.6" class="st2" width="18.5" height="18.5"/>
<rect x="218.8" y="307.1" class="st2" width="18.5" height="18.5"/>
<rect x="256.8" y="307.1" class="st2" width="18.5" height="18.5"/>
<rect x="196.6" y="375.6" class="st3" width="101.9" height="22.2"/>
<g id="circle">
	<animateTransform attributeName="transform" attributeType="XML" type="rotate" from="0 250 250" to="360 250 250" dur="7s" repeatCount="indefinite" />
	<polyline class="st1" points="299.6,444.6 279.7,462.3 305,470.7 	"/>
	<path class="st4" d="M249.7,468.5c-119.2-0.2-215.8-96.9-215.8-216.2S130.7,36.2,250.1,36.2S466.2,133,466.2,252.3
		c0,101.8-70.3,187.1-165,210.1l-1.2-5.2c92.3-22.4,160.9-105.6,160.9-204.9c0-116.4-94.4-210.8-210.8-210.8S39.2,135.9,39.2,252.3
		c0,116.3,94.2,210.7,210.5,210.8"/>
</g>
</svg>
