<?xml version="1.0" encoding="utf-8"?>
<!-- Generator: Adobe Illustrator 21.1.0, SVG Export Plug-In . SVG Version: 6.00 Build 0)  -->
<svg version="1.1" id="Layer_1" xmlns="http://www.w3.org/2000/svg" xmlns:xlink="http://www.w3.org/1999/xlink" x="0px" y="0px"
	 width="1967.3px" height="1188px" viewBox="0 0 1967.3 1188" style="enable-background:new 0 0 1967.3 1188;" xml:space="preserve"
	>
<style type="text/css">
	.st0{fill:none;stroke:#FFFFFF;stroke-width:3;stroke-linecap:round;stroke-miterlimit:10;}
	.st1{fill:none;stroke:#FFFFFF;stroke-width:3;stroke-miterlimit:10;}
	.st2{fill:#FFFFFF;}
</style>
<g>
	<circle class="st0" cx="1349.4" cy="594" r="572.7"/>
	<circle class="st0" cx="1349.4" cy="594" r="394.9"/>
	<path class="st1" d="M874,846.7l-30.7-66.9l30-13.5l13.9,30.9l12.9-5.7l-13.7-30.4l28.1-12.9l13.7,30.4l42.4-19.1l16.3,36.3
		L874,846.7L874,846.7z M963.2,780.4l-41,18.6l-14.4-32.3l-4,1.9l14.4,32.3l-36.6,16.5L865.9,783l-4,1.9l17.1,38.4l85.9-39.2
		L963.2,780.4z"/>
	<path class="st1" d="M816.1,686.4l-4.3-42.7c-0.8-7.9-0.5-15.7,1.1-22c1.4-7.3,4-12.7,7.6-18.8c3.7-5.4,8.2-9.7,14.1-13.4
		c5.6-3,12.4-5.5,20.5-5.9c6.2-0.2,11.5-0.7,15.8,0.8c4.6,1.4,8.2,2.6,11.6,5.1c3.4,1.9,6.5,4.8,9.3,7.3l38.3-27.5l4.2,46.3
		l-29.7,21.6l31.9-2.9l3.7,39.7L816.1,686.4z M893,639.7c-0.3-5.1-1.3-9.3-2.6-13.9l27.9-20.5l-0.5-5.5l-29,21.9
		c-2.9-6.6-6.7-11.4-12.7-14.9c-5.4-3.2-11.6-5.1-19.6-4.2c-5.5,0.5-10,2.1-13.8,4.5s-6.7,5.5-9.4,9.5c-2.2,3.9-3.7,8.1-5.2,13.8
		c-0.9,4.9-1.1,10.7-0.2,16l2.2,20.3L924,658l-0.3-5.1l-27.9,2.6L893,639.7z M890.2,655.7l-57,5.5l-1.5-15.5
		c-1.1-11.3,0.3-20.2,4.8-27.4c4.6-6.9,11-10.6,20-11.4c8.8-1.2,16.5,1.6,22.2,7.3s8.8,14.2,10,25.6L890.2,655.7z M873.4,640.8
		l-0.4-2.5c-0.1-4.6-2.2-8.5-4.4-11.8c-2.6-3.1-6.3-4.4-11.1-3.6c-5.1,0.3-8.4,2.5-10.1,5.8c-1.8,3.7-2.4,7.5-2.3,12.1l0.4,2.5
		L873.4,640.8z"/>
	<path class="st1" d="M873.4,503.8c-8.2-2.6-16-7-22.2-12.9c-6.7-5.8-11.7-12.2-15.3-19.5c-3.8-7.8-5.6-15.4-6.6-23.7
		s0.4-17.2,3-25.4s7-16,12.9-22.2c5.8-6.7,12.2-11.7,19.5-15.3c7.8-3.8,15.4-5.6,23.7-6.6s17.2,0.4,25.4,3s16,7,22.2,12.9
		c6.7,5.8,11.7,12.2,15.3,19.5c3.8,7.8,5.6,15.4,6.6,23.7s-0.4,17.2-3,25.4s-7,16-12.9,22.2c-5.8,6.7-12.4,11.2-19.5,15.3
		c-7.8,3.8-15.4,5.6-23.7,6.6C890.1,507,881.6,506.5,873.4,503.8z M879.1,486.8c6.4,1.8,12.3,2.7,18.8,2.4c6.2-0.2,12.2-1.9,17.7-5
		c5.3-2.5,10.5-6.5,14.5-10.9c4.5-4.7,7.1-10.3,9.7-16.9c1.8-6.4,2.7-12.3,2.4-18.8c-0.2-6.2-1.9-12.2-5-17.7
		c-2.5-5.3-6.5-10.5-10.9-14.5c-4.7-4.5-10.3-7.1-16.9-9.7c-6.4-1.8-12.3-2.7-18.8-2.4c-6.2,0.2-12.2,1.9-17.7,5
		c-5.2,2.8-10.5,6.5-14.5,10.9c-4.5,4.7-7.1,10.3-9.7,16.9c-1.8,6.4-2.7,12.3-2.4,18.8c0.2,6.2,1.9,12.2,5,17.7
		c2.5,5.3,6.5,10.5,10.9,14.5C867.6,481.9,872.6,484.7,879.1,486.8z M934.2,454.9c-2.1,5.4-4.8,10.6-8.4,14.9
		c-4.1,4.1-8.5,7.8-13.3,10c-4.9,2.3-10,3.7-15.8,4.7c-5.5,0.5-11.3,0-16.7-2.1s-10.6-4.8-14.9-8.4c-4.1-4.1-7.8-8.5-10-13.3
		c-2.3-4.9-4.2-9.8-4.2-15.9c-0.5-5.5,0-11.3,2.1-16.7c1.6-5.2,4.8-10.6,8.4-14.9c4.1-4.1,8.5-7.8,13.3-10c4.9-2.3,9.8-4.2,15.8-4.7
		c5.5-0.5,11.3,0,16.7,2.1s10.6,4.8,14.9,8.4c4.1,4.1,7.8,8.5,10,13.3c2.3,4.9,4.2,9.8,4.2,15.9C936.9,444,936.7,449.3,934.2,454.9z
		 M885.5,466.6c3.6,1.3,6.8,1.6,10.7,1.1c3.5-0.3,6.7-1.4,9.3-2.4c3.2-1.2,5.4-3.5,8-6.1c2.5-2.9,4.1-5.6,5.6-8.8
		c1.3-3.6,1.6-6.8,1.1-10.7c-0.3-3.5-1.4-6.7-2.4-9.3c-1.2-3.2-3.5-5.4-6.1-8c-2.9-2.5-5.6-4.1-8.8-5.6c-3.6-1.3-6.8-1.6-10.7-1.1
		c-3.5,0.3-6.7,1.4-9.3,2.4c-3.2,1.2-5.4,3.5-8,6.1c-2.5,2.9-4.1,5.6-5.6,8.8c-1.3,3.6-1.6,6.8-1.1,10.7s1.4,6.7,2.4,9.3
		c1.2,3.2,3.5,5.4,6.1,8C879.1,463.1,882,465.2,885.5,466.6z"/>
	<path class="st1" d="M914.7,264.5l22.8-23.2l56.6,11.2l-10.9-56.3L1006,173l87.8,88.1l-28,27.7l-31.2-31.8l8.1,44.4l-44.2-8.4
		l31.2,31.8l-28,27.7L914.7,264.5z M1008.5,325.2l-60.4-60.7l72.2,13.2l-13.2-72.2l60.4,60.7l2.9-3.1l-66.8-67l-3.4,3.3l13.5,73.2
		l-72.6-14.1l-3.8,3.5l66.8,67L1008.5,325.2z"/>
	<path class="st1" d="M1225.3,105.8l-22.5,4.6l-6.6-32l85.3-16.9l6.6,32l-22.5,4.6l18.1,90.1l-40.7,8.3L1225.3,105.8z M1263.5,176.1
		l-18.1-88.5l26.2-5.6l-0.5-4.4l-57,11.6l0.5,4.4l26.2-5.6l17.7,88.7L1263.5,176.1z"/>
	<path class="st1" d="M1376,56.6l39.3,5l-5.3,41.6l22.2,3.2l5.3-41.6l39.9,5l-16.1,123.1l-39.9-5l6-45.3l-22.2-3.2l-6,45.3l-39.3-5
		L1376,56.6z M1385.4,167.9l6-46.9l54.6,7.2l-6,46.9l4.9,0.9l12-93.3l-4.9-0.9l-5.4,42.5l-54.6-7.2l5.4-42.5l-4.9-0.9l-12,93.3
		L1385.4,167.9z"/>
	<path class="st1" d="M1577.8,104.9l63.4,37l-15.8,28.4l-29.4-17l-6.9,11.9l28.8,16.7l-15.3,26.7l-28.8-16.7l-7.2,12.4l30.1,17.7
		l-15.8,28.4l-65.2-37.3L1577.8,104.9z M1576.3,229.9l2.2-3.9l-32.4-18.5l19.8-35.5l30.8,18l2.2-3.9l-30.8-18l20-35.1l32.4,18.5
		l1.9-3.4l-36.4-21l-46.6,81.9L1576.3,229.9z"/>
	<path class="st1" d="M1741.4,316.9c8.2-4.5,16.1-6.5,25.2-7.1c8.5-0.6,17.2,0.4,24.9,3.2c8,2.2,15.4,6.8,21.9,12.1
		c6.7,5.3,11.7,12.2,16.2,20.2c4.5,8.2,6.5,16.1,7.1,25.2c0.8,9,0.1,17-3.2,24.9c-2.2,8-6.8,15.4-12.1,21.9
		c-5.3,6.7-12.2,11.7-20.2,16.2c-8.2,4.5-16.1,6.5-25.2,7.1c-8.5,0.6-17.2-0.4-24.9-3.2c-8-2.2-15.4-6.8-21.9-12.1
		c-6.7-5.3-11.7-12.2-16.2-20.2c-4.5-8.2-6.5-16.1-7.1-25.2c-0.6-8.5-0.1-17,3.2-24.9c2.2-8,6.8-15.4,12.1-21.9
		C1726.9,326.4,1733.2,321.5,1741.4,316.9z M1749.8,332.9c-5.6,3-10.7,7.4-14.5,12c-4.1,4.5-7.1,10.3-8.5,16
		c-1.8,6.4-2.3,11.6-2.1,18.3c0.2,6.2,2.1,12.7,5.1,18.2c3,5.6,7,10.9,12,14.5c4.7,4.5,10.3,7.1,16,8.5c6.4,1.8,11.8,2.8,18.3,2.6
		c6.2-0.2,12.7-2.1,18.2-5.1c5.6-3,10.9-7,14.5-12c4.1-4.5,7.1-10.3,8.5-16c1.8-6.4,2.3-11.6,2.1-18.3c-0.2-6.2-2.1-12.7-5.1-18.2
		c-3-5.6-7-10.9-12-14.5c-4.7-4.5-10.3-7.1-16-8.5c-6.4-1.8-11.8-2.8-18.3-2.6C1761.4,328.1,1755.4,329.8,1749.8,332.9z M1733.6,395
		c-2.8-5.2-4.4-10.7-4.4-16.3c0-5.7,0-11.3,2.3-16.2c1.8-4.8,4-10.2,7.5-14.6c3.6-4.5,8.5-7.8,13.5-10.7c5.2-2.8,10.7-4.4,16.3-4.4
		c5.7,0,11.3,0,16.2,2.3c5.7,1.6,10.4,4.3,14.6,7.5c4.5,3.6,7.8,8.5,10.7,13.5c2.8,5.2,4.4,10.7,4.4,16.3c0,5.7,0,11.3-2.3,16.2
		c-1.6,5.2-4,10.2-7.5,14.6c-3.6,4.5-8.5,7.8-13.5,10.7c-5.2,2.8-10.7,4.4-16.3,4.4c-5.6,0-11.3,0-16.2-2.3
		c-5.7-1.6-10.4-4.3-14.6-7.5C1739.8,404.9,1736.4,400.1,1733.6,395z M1759.4,352.1c-3.5,1.7-5.9,3.7-8.4,6.6
		c-2.5,2.9-3.9,6.1-5.1,8.6c-0.8,3.4-1.4,6.2-1.5,9.8c0.3,3.5,1.4,6.7,2.6,9.8c1.7,3.5,3.7,5.9,6.6,8.4c2.8,2,6.1,3.9,8.6,5.1
		c3.4,0.8,6.2,1.4,9.8,1.5c3.5-0.3,6.7-1.4,9.8-2.6c3.2-1.2,5.9-3.7,8.4-6.6c2-2.8,3.9-6.1,5.1-8.6c0.8-3.4,1.4-6.2,1.5-9.8
		c-0.3-3.5-1.4-6.7-2.6-9.8c-1.7-3.5-3.7-5.9-6.6-8.4c-2.8-2-6.1-3.9-8.6-5.1c-3-1-6.2-1.4-9.8-1.5
		C1765.7,349.6,1762.9,350.2,1759.4,352.1z"/>
	<path class="st1" d="M1879.1,507.1l5.8,73.4l-32.5,2.7l-2.5-33.4l-13.6,0.9l2.3,33l-30.4,2.5l-2.3-33l-46.5,3.7l-3.3-39.9
		L1879.1,507.1z M1772.3,539.7l45.4-3.8l3,34.9l4.6-0.1l-3-34.9l40.4-3.5l3.4,37.4l4.6-0.1l-3.6-41.9l-94.3,7.8L1772.3,539.7z"/>
	<path class="st1" d="M1877,676.5l-17.1,71l-31.5-7.5l7.5-32.6l-13.5-3.3l-7.7,32.1l-30.3-6.9l7.7-32.1l-45.5-10.5l8.9-38.7
		L1877,676.5z M1765.6,674.2l44,10.7l-8,34.4l4.5,0.9l8-34.4l38.9,9.3l-8.8,36.2l4.5,0.9l9.9-40.6l-92-22.3L1765.6,674.2z"/>
	<path class="st1" d="M1824.9,833l-20.5,36.9L1696,810l20.5-36.9L1824.9,833z M1717.5,801l83,45.6l2.2-3.9l-83-45.6L1717.5,801z"/>
	<path class="st1" d="M1707.4,903.9c6.7,6.9,12,14.5,15,22.7c2.9,8.2,4.4,16.3,3.9,24.8s-2.3,16.2-5.7,23.7
		c-3.9,7.7-8.6,14.4-15.4,21c-5,4.4-10.2,8.9-15.2,11.8s-9.5,4.9-13.6,6.6c-4.7,1.2-9.3,2.9-13,3.8l-9.6-38.7
		c2.1-0.2,4.7-1.2,7.6-1.8c1.9-0.7,4.7-1.2,7-3.1c3.2-1.2,5.6-3,8-6.1c3.1-2.6,5-6,6.1-8.4c1.5-3.2,2.3-6.6,2.2-9.6
		c0.2-3.7-0.9-6.9-1.5-9.7c-1.2-3.2-3.2-6.1-5.8-8.7c-2.4-2.7-5.8-4.6-8.2-5.6c-3.6-1.3-6.8-1.6-10.5-1.8s-6.9,0.9-10,2.1
		c-3.5,1.7-6.5,3.4-9.6,6.1c-2.9,3.1-5,6-6.7,8.2c-1.5,3.2-2.7,5.2-3.3,7.9c-1,3-1.2,5-1.2,8.2l-38-11.2c0.4-4.3,1.9-8.9,3.3-13.5
		c1.6-4.1,4.2-8.2,6.8-13.8c2.9-4.7,7.1-10.3,12.1-14.7c6.9-6.7,14.5-12,22.7-15.5c8-3.4,16.7-5.1,24.8-5.5
		c8.3,0.1,16.3,1.2,24.4,4.9C1693.3,892,1700.8,897.1,1707.4,903.9z M1690.4,920.4c4.1,4.1,7,9.2,9.3,14.1s3,10.7,3.3,15.8
		c-0.2,5.3-1.1,10.7-3.4,16.2c-2.3,5-6,10.4-10.5,14.7c-2.7,2.4-4.8,3.7-6.7,5.5s-4.2,2.6-5.6,3c-1.9,0.7-4,1.9-5.4,2l1.2,4.7
		c1.9-0.7,4-1.9,6.6-2.9c1.9-0.7,4.2-2.6,6.3-3.9c1.9-1.7,5-3.3,7.4-6.3c4.6-4.2,8.2-9.7,11-14.8c2.3-6.1,4.1-11.3,4.6-17.1
		c0.5-5.8-0.9-12-3-18c-2.1-5.9-5.8-11.8-10.4-17.2c-5.6-5.2-10.6-9.4-16.6-11.4c-5.9-2-11.6-3.4-18.2-3.5c-5.7,0-12.3,1.4-18.1,4.1
		c-5.8,2.7-11.6,6.2-16.5,11.1c-3.1,2.6-4.8,5.4-6.5,7.6c-1.7,2.7-2.9,4.7-4.2,6.7s-2,4.3-2.3,6.6l4.6,1.4c0.4-1.6,1.1-4.1,2-5.9
		c1-1.3,1.8-3.7,3.3-6.3c1.3-2,3.6-4.5,6.2-6.9c5-4.4,10.3-8.3,15.6-10.9c5.3-2.5,11-3.5,16.2-3.5c5.3,0.2,10.7,1.1,15.7,3.6
		C1681.7,912.3,1686.3,916.3,1690.4,920.4z"/>
	<path class="st1" d="M1588.2,1076.7l-67.4,29.3l-13.1-30.2l31.1-13.5l-5.7-12.9l-30.6,13.3l-12-28.5l30.6-13.3l-5.9-13.3l-32,13.7
		l-13.1-30.2l68.3-29.7L1588.2,1076.7z M1488.4,1000.8l1.9,4l34.6-14.7l16.2,37.2l-32.5,13.9l1.9,4l32.5-13.9l16,36.8l-34.6,14.7
		l1.9,4l38.6-16.7l-37-86.7L1488.4,1000.8z"/>
	<path class="st1" d="M1317.1,1076.4c-2,8.4-5.3,16.3-10.9,23.5c-5.1,7-11.3,12.9-18.4,17s-14.8,7.5-23.1,9.6
		c-8.6,1.7-17,1.1-26-0.8c-8.4-2-16.3-5.3-23.5-10.9c-7-5.1-12.9-11.3-17-18.4c-4.1-6.8-7-15-9.6-23.1c-1.7-8.6-1.1-17,0.8-26
		c1.9-8.9,5.7-16.5,10.4-23.3c5.1-7,11.3-12.9,18.4-17s14.8-7.5,23.1-9.6c8.6-1.7,17-1.1,26,0.8c8.4,2,16.3,5.3,23.5,10.9
		c7,5.1,12.9,11.3,17,18.4c4.1,7.3,7.5,14.8,9.6,23.1C1319,1059.3,1319.1,1068,1317.1,1076.4z M1299.8,1072.5
		c1.4-6.2,1.6-12.4,0.3-19.1c-0.7-6-3.4-12.1-6.3-17.3c-3.3-5-7.2-9.7-12.6-13.4c-5.4-3.7-11-6.2-17.6-7.4
		c-6.2-1.4-12.4-1.6-19.1-0.3c-5.8,1.1-11.9,3.9-17.3,6.3c-5,3.3-9.7,7.2-13.4,12.6c-3.4,4.9-6.2,11-7.6,17.2s-1.6,12.4-0.3,19.1
		c0.7,6,3.4,12.1,6.3,17.3c3.3,5,7.2,9.7,12.6,13.4c5,3.9,11,6.2,17.2,7.6s12.4,1.6,19.1,0.3c5.8-1.1,11.9-3.9,17.1-6.7
		c5-3.3,9.7-7.2,13.4-12.6C1296,1084.8,1298.6,1079.1,1299.8,1072.5z M1263.1,1020.2c5.7,1.6,11.1,3.6,15.6,7.2
		c4.5,3.6,8.3,7.3,11,11.9c2.8,4.7,4.9,9.5,6.3,15.7c1.4,5.1,1.1,11.3-0.4,17.2c-1.6,5.7-3.6,11.1-7.2,15.6s-7.5,7.8-11.9,11
		c-4.7,2.8-9.5,4.9-15.2,6.1c-5.1,1.4-11.3,1.1-17.2-0.4c-6.2-1.4-11.1-3.6-15.6-7.2s-8.3-7.3-11-11.9c-2.8-4.7-4.9-9.5-6.3-15.7
		c-1.4-5.1-1.1-11.3,0.4-17.2c1.6-5.7,3.6-11.1,7.2-15.6s7.3-8.3,11.9-11c4.7-2.8,9.5-4.9,15.2-6.1
		C1251.4,1019.3,1256.9,1018.8,1263.1,1020.2z M1279.1,1067.7c0.8-3.4,1-7.1-0.1-10.2c-0.7-3.3-1.6-6.1-3.5-9.5
		c-2-2.9-3.9-5.2-6.9-7.3c-2.9-2.5-6.1-2.8-9.5-3.6c-3.4-0.8-7.1-1-10.4-0.4c-3.5,0.3-6.1,1.6-9.5,3.5c-2.9,2-5.2,3.9-7.3,6.9
		c-2,2.8-3.5,5.9-3.6,9.5c-0.8,3.4-1,7.1,0.1,10.2c1,3.1,1.6,6.1,4,9.3c1.7,3,3.9,5.2,6.9,7.3c2.8,2,6.1,2.8,9.3,4.3
		c3.4,0.8,7.1,1,9.9,0.4c3.5-0.3,6.1-1.6,9.5-3.5c2.9-2,5.2-3.9,7.3-6.9C1277,1074.8,1278.3,1071.7,1279.1,1067.7z"/>
	<path class="st1" d="M1084.6,1063.6l-61.2-40.8l18-26.7l28,18.5l7.6-11.5l-27.8-18.1l17.3-25.8l27.8,18.1l25.7-39.2l33.4,22.2
		L1084.6,1063.6z M1125.6,959.5l-24.9,37.4l-29.3-19.5l-2.4,3.4l29.3,19.5l-22,33.8l-31.4-21l-2.4,3.4l35.4,23.5l52.3-78.9
		L1125.6,959.5z"/>
	<g>
		<g>
			<path class="st1" d="M1066.5,661.3l-41,18.6l41.2,91.3l41-18.6l2.5,5.3l-46.8,21.2L1018.1,678l46.8-21.2L1066.5,661.3z
				 M1067.8,711.2l2.1,4.4l-7.5,3.3l-2.1-4.4L1067.8,711.2z"/>
			<path class="st1" d="M1140,717.2l7.2,15.4l3.1,7l-5.3,2.5L1099.7,641l5.3-2.5L1140,717.2z M1191.8,720.8l-25.3,11.3l-2.5-5.3
				l25.3-11.3L1191.8,720.8z"/>
			<path class="st1" d="M1251.3,693.8l-5.7,2.5l-45.2-100.6l5.7-2.5L1251.3,693.8z"/>
			<path class="st1" d="M1463,483l-41,18.6l41.2,91.3l41-18.6l2.5,5.3l-46.8,21.2l-45.3-101.1l46.8-21.2L1463,483z M1464.7,532.7
				l2.1,4.4l-7,3.1l-2.1-4.4L1464.7,532.7z"/>
			<path class="st1" d="M1528,520.3c2.7,6.1,6,12.2,9.5,16c5.9,7.6,12.4,11.3,20,12.2c3.2,0.4,5.3,0.7,7.6-0.2l0.9,5.3
				c-4.4,0.5-7.4,1.1-9.4,1c-8.5-1-15.7-5-22.4-13.3c-3.7-4.3-7.4-10.1-11-17.5l-27.1-60l5.3-2.5L1528,520.3L1528,520.3L1528,520.3z
				 M1593,509.2c-1.1-5.8-2.8-11.8-5.5-18l-25.8-57.9l4.4-2.1l26,58.3c3.3,7.5,5.8,14.3,7.2,21c1.4,10.8-0.1,19.6-4.9,26
				c-1.7,2.7-4.5,4.7-6.4,6.5l-3.9-3.6c1.9-0.7,3.6-2.8,5.2-5.6C1593.4,527.1,1594.4,519,1593,509.2z"/>
			<path class="st1" d="M1607.3,428l-5.5-11.9l21.3-9.3c5.3-2.5,10.5-3.8,15.2-5c3.8-0.8,7.9-0.8,11.7-0.2c4.1,1.1,7.1,2.6,9.5,4.7
				c2.4,2.7,4.6,5.5,6.7,9.9c2.5,5.7,2.8,11.8,1,18.2c-1.6,5.2-4.8,10.6-10,15l45.8,40.9l-6.6,2.9l-48-42.6c2.8-1,4.7-2.8,5.7-5.2
				c0,0,1.7-2.2,4.4-6.3c1.3-3.6,1.6-6.8,2-10c0.2-3.7-0.9-6.9-2.3-10.4c-1.7-3.5-3.2-6.1-6.1-8c-2.2-1.7-5.4-3.2-8.2-4.2
				c-2.8-0.6-6-0.9-10.2,0.1c-3.8,0.8-8.1,2-12.1,3.4l-12.9,5.7l-1.9,0.7l1,2.8l2.5,5.3l-4.9,2.3L1607.3,428L1607.3,428z
				 M1648.6,504.3l4.6,9.6l-5.3,2.5l-16.1-35.3l5.3-2.5L1648.6,504.3z"/>
		</g>
		<g>
			<path class="st1" d="M1353.8,528.6l-21.8,64l-62.4-25.9l8.9-3.8l48.7,19.2l18-49.2L1353.8,528.6z M1342,614.3l-18,49.2l-8.9,3.8
				l22.1-63.1l61.8,25.7l-8.9,3.8L1342,614.3z"/>
			
				<rect x="1266.7" y="519.5" transform="matrix(0.912 -0.4103 0.4103 0.912 -127.7288 600.183)" class="st1" width="135.7" height="156.5"/>
		</g>
	</g>
	<g>
		<path class="st2" d="M65.1,668.3c-7-5.2-12.1-12.3-15.2-21.1c-3.1-8.7-4.7-18.2-4.7-28.3c0-20.1,4.9-40.4,14.7-61
			c10-20.6,22.4-37.6,37.3-51.1c15.1-13.4,30-20.1,44.5-20.1c6.9,0,12.1,1.6,15.9,4.9c3.8,3.3,5.7,8.5,5.7,15.2
			c0,6.2-1.5,13.1-4.3,21.3c-2.8,8-6.4,14.7-10.6,20.5c-4.3,5.6-8.5,8.5-12.4,8.5c-3.1,0-5.6-1.8-7.4-5.4
			c5.7-6.7,11.5-14.6,16.9-24.1s8.3-17,8.3-23.2c0-3.3-1-5.7-2.8-7.9c-1.8-1.8-4.7-2.8-8.7-2.8c-10.8,0-22.4,7-34.9,21.1
			c-12.4,14.1-22.7,31.3-31.3,51.6c-8.5,20.5-12.6,39.1-12.6,56.5c0,12.8,2.8,23.6,8.3,32.4c5.4,8.7,13.7,13.1,24.9,13.1
			c8,0,16-2.3,24.4-7c8.3-4.6,15.9-10.8,22.7-18.5c7-7.7,12.4-16,16.7-25.2l3.3,2.3c-8.5,16.5-19.1,30.3-31.8,40.6
			c-12.6,10.5-26.4,15.5-41.4,15.5C81,676.5,72.1,673.7,65.1,668.3z"/>
		<path class="st2" d="M184.4,658c-2.9-2.8-4.6-6.5-4.6-11.1c0-5.2,2.3-12.9,6.9-23.1c2-5.1,3.4-9.3,4.6-12.3c1-2.9,1.5-6.1,1.5-8.7
			c0-3.9-0.8-7-2.6-9.3s-3.8-4.1-6.1-5.6s-3.6-2.5-4.4-2.9c-3.4,8.8-7.2,17.3-11.1,25.7c-3.9,8.5-7.2,14.9-10,19.5l-2.1-3.9
			c7.5-14.6,13.9-29.6,19.1-44.7c-1.5-1.5-2.3-3.4-2.3-5.6c0-2.8,0.7-5.4,1.8-8c1.1-2.5,2.6-4.4,4.3-5.7s2.9-2.1,3.8-2.1
			c2.1,0,3.3,1.8,3.3,5.6c0,0.7-0.3,2-1.1,4.3c-0.8,2.1-1.3,3.6-1.5,4.4c0,1.5,0.7,2.9,2,4.3c1.3,1.3,3.4,2.9,6.5,4.9
			c4.7,3.4,8.7,6.9,11.5,10.3c2.8,3.3,4.1,7.9,4.1,13.1c0,3.4-0.5,6.9-1.6,10.3c-1.1,3.3-2.8,7.9-4.9,13.3
			c-3.4,7.5-5.1,12.9-5.1,16.2c0,4.6,2.3,7.2,7.2,7.2c4.7,0,9.8-1.8,15.1-5.6c5.4-3.8,10.5-8.5,14.9-13.9c4.4-5.6,7.9-10.6,10-15.4
			l2.9,2.3c-4.7,10.8-11.9,20.5-21.3,28.6c-9.3,8.2-18.7,12.4-28,12.4C191.5,662.1,187.4,660.7,184.4,658z"/>
		<path class="st2" d="M236.8,661.9c-3.1-3.3-4.7-8.2-4.7-14.4c0-9.3,3.3-19.6,10-31.1c6.7-11.5,15.1-21.3,25.2-29.3
			c10.1-8,20.1-11.9,30-11.9c6.2,0,11.3,1.6,15.2,4.9c4.1,3.3,6.2,7.5,6.2,12.8c0,3.6-1,6.2-2.9,7.9c-2,1.5-4.7,2.3-8.5,2.3
			c0.8-2.8,1.1-5.6,1.1-8.3c0-3.9-1-7.2-2.8-9.5c-1.8-2.5-4.7-3.6-8.7-3.6c-7,0-14.1,3.8-21.8,11.5c-7.7,7.7-13.9,16.9-19.1,27.5
			c-5.2,10.6-7.7,20-7.7,27.5c0,6.2,2.1,9.2,6.4,9.2c6.4,0,13.6-4.9,22.1-14.9s17.7-22.1,27.2-36.3c2,0.3,4.1,1,6.4,2
			s3.1,2.3,3.1,3.8c0,1.3-0.7,3.3-2.1,6.1c-1.5,2.8-2.3,4.3-2.6,4.7c-2.6,4.4-4.7,8.7-6.4,12.1c-1.6,3.4-2.3,6.9-2.3,9.8
			c0,2.6,0.7,4.9,2,7.2c1.3,2.1,3.3,3.1,6.1,3.1c4.4,0,10.3-3.3,17-9.8c7-6.5,13.7-15.5,20.5-27.3l2.3,2.3
			c-3.3,8.3-7.5,15.7-12.8,22.3c-5.1,6.5-10.8,11.6-16.7,15.1c-6.1,3.6-11.6,5.4-17,5.4s-9.7-1.6-12.6-4.7
			c-2.8-3.1-4.3-7.2-4.3-11.6c0-2,0.2-4.3,0.7-6.9c-7.2,9.5-13.4,16.2-19,20.8c-5.6,4.3-11.1,6.7-16.5,6.7
			C244.2,667,239.9,665.3,236.8,661.9z"/>
		<path class="st2" d="M328.6,717.2c-2.6-2.9-3.9-8.5-3.9-16c0-16.4,5.7-42.4,17.7-77.7c11.9-35.4,25.5-67.1,41.4-94.9
			c15.7-27.8,29.8-41.9,41.9-41.9c2.9,0,4.9,0.8,6.4,2.6c1.1,1.8,1.8,4.3,1.8,7.7c0,8.7-2.9,18.5-9.2,29.5
			c-6.2,11-14.1,21.8-23.7,32.2c-9.8,10.5-19.8,19.3-30,26.4c-1.1,2.5-2.6,6.5-4.4,11.8c1.5,0.3,2.8,1.1,3.8,2.6s1.6,3.1,2,4.7
			c1.3,8.8,2.5,15.5,3.8,20.5c1.3,4.7,3.1,8.8,5.7,11.8c2.6,2.9,6.4,4.4,11,4.4c5.1,0,9.7-1.8,13.3-5.4c3.6-3.6,8-9.5,12.8-17.7
			l3.4,2.3c-3.8,8.8-8.7,15.4-14.2,20c-5.7,4.4-11.3,6.9-16.4,6.9c-2.8,0-5.7-0.7-8.8-2.1c-2.9-1.5-6.1-3.3-8.7-5.6
			c0,12.8-1.8,25.7-5.4,38.5s-8.2,23.4-13.7,31.8c-5.6,8.3-11.3,12.3-17,12.3C334.2,721.8,331.2,720.3,328.6,717.2z M353.6,698.6
			c3.8-8,7.2-17.3,10-28.3s4.1-20.5,4.1-28.3c0-4.6-0.7-9-1.8-12.9c-1.1-3.9-3.3-8.8-6.4-14.6c-6.2,18.2-11.1,34.7-14.7,50.1
			c-3.8,15.4-5.6,27-5.6,34.9c0,3.6,0.3,6.4,1.1,8.3c0.8,2,1.8,2.9,3.3,2.9C346.4,710.5,349.9,706.6,353.6,698.6z M400,547.7
			c7.7-9.7,13.6-18.2,17.8-25.7c4.3-7.7,6.4-13.1,6.4-16.4c0-2.1-1.1-3.3-3.3-3.3c-5.7,0-12.8,6.9-21.3,20.5
			c-8.3,13.6-16.7,31.1-25.4,52.7C383.9,566.5,392.4,557.3,400,547.7z"/>
		<path class="st2" d="M413.1,643.4c0-6.9,1.1-15.1,3.6-25c2.5-10,5.7-20.6,10-31.8c-3.8-0.7-6.7-1.3-8.5-1.8v-4.3
			c5.6,0.7,9.2,1,10.3,1c7-18,14.2-33.4,22.3-46.5c8-13.1,14.1-19.6,18.8-19.6c1.3,0,2.3,0.5,3.4,1.5c1,1,1.5,2.1,1.5,3.8
			c0,2-1,4.9-2.9,9c-2,4.1-5.2,10-10,18.2c-0.8,1.5-3.1,6.1-7.4,13.1c-4.1,7.2-7.9,14.2-11.1,21.6h8.7c12.9,0,24.2-0.5,33.7-1.5v4.3
			c-17,1.8-30.9,2.8-41.4,2.8h-3.5c-8.7,19.8-12.9,36.8-12.9,51.2c0,6.9,1,11.6,2.9,14.4c2,2.8,5.4,4.3,10.1,4.3
			c8,0,15.9-3.4,23.7-10.6c7.9-7.2,14.7-16.9,20.9-29.6l2.9,2.3c-5.7,13.6-13.6,24.9-23.6,33.6s-20.3,13.1-31.1,13.1
			C420.1,666.6,413.1,659.1,413.1,643.4z"/>
		<path class="st2" d="M485.1,658.8c-4.9-5.1-7.5-11.6-7.5-19.6c0-9.3,2.9-19.3,9.2-30c6.2-10.6,13.7-19.6,23.2-26.8
			c9.3-7.4,18.5-11,27.3-11c9.8,0,14.6,4.7,14.6,14.2c0,7.7-2.9,14.9-8.7,21.6c-5.7,6.7-13.3,12.1-22.4,16.4
			c-9.2,4.3-18.3,6.9-27.2,7.9c-0.7,2.6-1,5.4-1,8.5c0,5.6,1.5,10.3,4.3,14.1c2.8,3.8,7.7,5.6,14.2,5.6c9.7,0,19.3-3.9,28.8-11.9
			c9.8-8,17.7-18,23.7-29.8l2.8,2.1c-6.4,13.9-14.9,25.2-26,33.7s-22.6,12.8-34.4,12.8C497.2,666.3,490.1,663.7,485.1,658.8z
			 M515.7,616.9c7.2-4.3,13.4-9.3,18.5-14.9s7.7-11.8,7.7-18c0-1.8-0.3-3.3-1-4.1s-2-1.3-3.8-1.3c-4.7,0-10.1,2.5-15.9,7.4
			c-5.7,4.7-11,11.1-15.7,18.7c-4.7,7.5-8.2,14.9-10.3,22.4C501.6,624.4,508.5,621,515.7,616.9z"/>
		<path class="st2" d="M561.2,658c-3.6-3.3-5.4-8.3-5.4-14.7c0-8.7,3.3-18.8,10-30.3s14.7-21.4,24.7-29.6
			c10-8.2,19.5-12.3,28.6-12.3c7,0,10.3,2.5,10.3,7.4c0,0.7-0.2,1.6-0.5,3.3c-1.5-2.3-4.4-3.4-9-3.4c-7.9,0-15.4,3.6-22.7,11.1
			c-7.4,7.5-13.4,16.2-18,26.2s-7,18.3-7,24.7c0,3.4,0.7,6.2,2.1,8.3c1.5,2,3.4,2.9,6.4,2.9c4.3,0,9.5-2.6,15.5-8.2
			c6.2-5.4,12.3-13.1,18.7-22.9c6.4-10,11.8-21.1,16.7-33.7c12.3-31.8,22.4-56.3,30.8-74c8.3-17.8,15.1-26.4,20.8-26.4
			c1.3,0,2.3,0.5,3.3,1.5s1.3,2.3,1.3,3.8c0,2.3-1.3,6.5-3.8,12.1c-2.5,5.7-6.7,14.6-12.3,26.4c-11.6,24.2-20.9,45-27.7,62.7
			c-7,17.7-10.3,33.1-10.3,46.3c0,5.1,0.3,8.7,0.8,10.5s2.1,2.6,4.6,2.6c3.3,0,7.2-1.5,11.6-4.3c4.4-2.8,9-7,13.3-12.3
			c4.3-5.2,8.2-11.3,11.3-18.3l2.8,2.1c-2.9,7.9-7.2,14.9-12.3,21.4s-10.6,11.5-16.5,15.1c-5.7,3.6-11.5,5.4-16.7,5.4
			s-9.3-1.6-11.8-5.1c-2.5-3.4-3.8-7.7-3.8-12.4c0-5.2,1.5-13.7,4.4-25.2c-8,13.1-16.2,23.7-24.9,31.8c-8.7,8-16.2,11.9-23.2,11.9
			C568.9,663,564.6,661.4,561.2,658z"/>
	</g>
</g>
</svg>
