<?xml version="1.0" encoding="utf-8"?>
<!-- Generator: Adobe Illustrator 21.1.0, SVG Export Plug-In . SVG Version: 6.00 Build 0)  -->
<svg version="1.1" id="Layer_1" xmlns="http://www.w3.org/2000/svg" xmlns:xlink="http://www.w3.org/1999/xlink" x="0px" y="0px"
	 width="500px" height="500px" viewBox="0 0 500 500" style="enable-background:new 0 0 500 500;" xml:space="preserve">
<style type="text/css">
	.st0{fill:#FAFAFA;}
	.st1{fill:none;stroke:#FAFAFA;stroke-width:6;stroke-miterlimit:10;}
	.st2{fill:none;stroke:#FAFAFA;stroke-miterlimit:10;}
	.st3{fill:#1A1A1A;stroke:#FAFAFA;stroke-width:1.6802;stroke-miterlimit:10;}
</style>
<title>customer validation</title>
<g id="circle">
	
		<animateTransform  accumulate="none" additive="replace" attributeName="transform" attributeType="XML" calcMode="linear" dur="7s" fill="remove" from="0 250 250" repeatCount="indefinite" restart="always" to="360 250 250" type="rotate">
		</animateTransform>
	<polyline class="st0" points="301.6,442.9 281.8,460.6 307.1,469 	"/>
	<path class="st1" d="M249.7,466.5c-119.2-0.2-215.8-96.9-215.8-216.2S130.7,34.2,250.1,34.2S466.2,131,466.2,250.3
		c0,101.8-70.3,187.1-165,210.1l-1.2-5.2c92.3-22.4,160.9-105.6,160.9-204.9c0-116.4-94.4-210.8-210.8-210.8S39.2,133.9,39.2,250.3
		c0,116.3,94.2,210.7,210.5,210.8"/>
</g>
<g>
	<path class="st2" d="M436.6,249.3c0,103.6-84,187.5-187.5,187.5s-187.5-84-187.5-187.5S145.5,61.8,249,61.8
		S436.6,145.8,436.6,249.3"/>
	<g>
		<path class="st3" d="M382.6,310c23.7-35.9,13.7-84.2-22.2-107.9c-35.9-23.7-84.2-13.7-107.9,22.2c-23.7,35.9-13.7,84.2,22.2,107.9
			c23.1,15.2,52.5,17,77.3,4.8c7,4.4,22.2,12.1,36.4,5.3L376,318.6C378.4,315.9,380.6,313,382.6,310z"/>
		<path class="st0" d="M332.9,269.1c0,7.1-5.7,12.8-12.8,12.8c-7.1,0-12.8-5.7-12.8-12.8c0-7.1,5.7-12.8,12.8-12.8c0,0,0,0,0,0
			C327.2,256.3,332.9,262,332.9,269.1"/>
		<path class="st3" d="M270.7,169.2c-43.5-28.6-101.9-16.6-130.6,26.9c-24.1,36.6-19.8,85,10.4,116.8l-13.3,25.7
			c21.6,10.4,40.5-5.8,40.5-5.8l-0.3-0.2c46.8,22.8,103.2,3.4,126-43.4C324.3,246.6,310.2,195.3,270.7,169.2z"/>
		<path class="st0" d="M224.4,258.5v2.5H207v-17c2.1,0.5,4.3,0.8,6.5,0.8c8.5,0,14.5-3.3,14.5-10.5c0-6.2-4.9-9.5-11.3-9.5
			c-6.1-0.1-12,2.4-16.3,6.8l-9.6-11.4c7.7-6.9,16.4-10.6,27.8-10.6c16.4,0,27.9,8.9,27.9,24.1C246.6,247.7,235.8,255.6,224.4,258.5
			 M206.6,269.6h18.8v16.6h-18.8L206.6,269.6z"/>
		<path class="st0" d="M365.1,269.1c0,7.1-5.7,12.8-12.8,12.8c-7.1,0-12.8-5.7-12.8-12.8s5.7-12.8,12.8-12.8c0,0,0,0,0,0
			C359.4,256.3,365.1,262,365.1,269.1"/>
	</g>
</g>
</svg>
