<svg xmlns="http://www.w3.org/2000/svg" xmlns:xlink="http://www.w3.org/1999/xlink" viewBox="0 0 500 500"><defs><style>.cls-1,.cls-2,.cls-28{fill:none;}.cls-2{stroke:#dbdbdb;}.cls-2,.cls-28{stroke-miterlimit:10;}.cls-3{fill:#fff;}.cls-4{clip-path:url(#clip-path);}.cls-5{fill:#b7b7b7;}.cls-6{fill:#e5e5e5;}.cls-7{fill:#b5b5b5;}.cls-8{fill:#f5f5f5;}.cls-9{fill:#eaeaea;}.cls-10{clip-path:url(#clip-path-2);}.cls-11{fill:#9a9a9a;}.cls-12{fill:#e7e7e7;}.cls-13{clip-path:url(#clip-path-3);}.cls-14{fill:#b6b6b6;}.cls-15{clip-path:url(#clip-path-5);}.cls-16{fill:#ededed;}.cls-17{clip-path:url(#clip-path-6);}.cls-18{fill:#d0d0d0;}.cls-19{fill:#e1e1e1;}.cls-20{fill:gray;}.cls-21{fill:#acacac;}.cls-22{clip-path:url(#clip-path-8);}.cls-23{fill:#565656;}.cls-24{clip-path:url(#clip-path-9);}.cls-25{fill:#e8e8e8;}.cls-26{clip-path:url(#clip-path-10);}.cls-27{fill:#fafafa;}.cls-28{stroke:#fafafa;stroke-width:6px;}</style><clipPath id="clip-path"><rect id="SVGID" class="cls-1" x="256.68" y="65.32" width="85.67" height="94.39"/></clipPath><clipPath id="clip-path-2"><rect id="SVGID-2" data-name="SVGID" class="cls-1" x="196.01" y="102.86" width="110.55" height="121.81"/></clipPath><clipPath id="clip-path-3"><rect id="SVGID-3" data-name="SVGID" class="cls-1" x="63.47" y="152.89" width="96.82" height="135.58"/></clipPath><clipPath id="clip-path-5"><rect id="SVGID-5" data-name="SVGID" class="cls-1" x="337.3" y="152.89" width="96.82" height="135.58"/></clipPath><clipPath id="clip-path-6"><rect id="SVGID-6" data-name="SVGID" class="cls-1" x="155.3" y="139.91" width="101.69" height="121.53"/></clipPath><clipPath id="clip-path-8"><rect id="SVGID-8" data-name="SVGID" class="cls-1" x="239.29" y="151.36" width="95.91" height="105.09"/></clipPath><clipPath id="clip-path-9"><rect id="SVGID-9" data-name="SVGID" class="cls-1" x="130.76" y="205.74" width="112.92" height="123.73"/></clipPath><clipPath id="clip-path-10"><rect id="SVGID-10" data-name="SVGID" class="cls-1" x="217.14" y="202.68" width="110.57" height="121.81"/></clipPath></defs><title>customer creation</title><g id="Layer_1" data-name="Layer 1"><path class="cls-2" d="M440,256.23c0,104.69-84.87,189.56-189.56,189.56S60.88,360.92,60.88,256.23,145.74,66.67,250.44,66.67,440,151.54,440,256.23"/><path class="cls-3" d="M340.23,107.56c0,33.6-17.56,21.47-40.05,21.47s-41.38,9.86-41.38-21.47c0-22.49,18.23-42.23,40.72-42.23s40.71,19.75,40.71,42.23"/><path class="cls-3" d="M336,123.26a36.46,36.46,0,1,1-72.92,0v-15.8a36.2,36.2,0,0,1,1.75-11.15C269.55,81.67,277.24,71,299.51,71s28.81,9.79,34.06,23.49a36,36,0,0,1,2.4,13v15.8"/><path class="cls-3" d="M342.35,121.43a6.69,6.69,0,1,1-6.68-6.68,6.68,6.68,0,0,1,6.68,6.68"/><path class="cls-3" d="M270,121.43a6.68,6.68,0,1,1-6.68-6.68,6.68,6.68,0,0,1,6.68,6.68"/><path class="cls-3" d="M268.09,86.1v6.68h34.62c12,0,22.6,1.74,28.81-7.55,0,0-5.89-17.49-32.41-17.49s-31,18.36-31,18.36"/><path class="cls-3" d="M261.4,86.6a6.31,6.31,0,1,0,6.3-6.3,6.3,6.3,0,0,0-6.3,6.3"/><g class="cls-4"><path class="cls-5" d="M299.52,65.32a38.46,38.46,0,0,0-17.11,4,42,42,0,0,0-13.77,11,6.21,6.21,0,0,1,1.85.58c3.44-5.43,11.38-13.21,28.62-13.21,26.51,0,32.41,17.49,32.41,17.49a18,18,0,0,1-1.29,1.7,70.51,70.51,0,0,1,3.35,7.56,36.18,36.18,0,0,1,2.39,13v2.05a48.49,48.49,0,0,1,4.26-2.44,42.67,42.67,0,0,0-5.75-20.81c-7.11-12.33-20.11-20.95-35-20.95"/></g><path class="cls-5" d="M262.54,90.21A42.61,42.61,0,0,0,259,103.47c1.42.22,2.82.51,4.2.85a36.26,36.26,0,0,1,1.62-8q.6-1.86,1.27-3.62a6.3,6.3,0,0,1-3.54-2.48"/><path class="cls-6" d="M330.23,86.93c-4.48,5.22-10.79,6-18.08,6-3,0-6.17-.13-9.44-.13H269a6.44,6.44,0,0,1-2.9-.08c-.45,1.17-.87,2.38-1.27,3.62a36.24,36.24,0,0,0-1.62,8c22.48,5.6,39.43,26.6,40.57,50.48a45.52,45.52,0,0,1,6.64,3.24,35.94,35.94,0,0,0,4.69-1.85A46.83,46.83,0,0,1,336,109.51v-2a36.08,36.08,0,0,0-2.4-13,69.47,69.47,0,0,0-3.35-7.56"/><path class="cls-5" d="M299.11,67.73c-17.25,0-25.18,7.77-28.62,13.21A6.3,6.3,0,0,1,269,92.77h33.72c3.27,0,6.44.13,9.44.13,8,0,14.85-.92,19.37-7.68,0,0-5.89-17.49-32.41-17.49"/><path class="cls-5" d="M267.71,80.3a6.3,6.3,0,1,0,2.78.64,6.39,6.39,0,0,0-1.85-.57,6,6,0,0,0-.93-.07"/><path class="cls-3" d="M408.11,148.86a46.8,46.8,0,1,1-46.79-46.79,46.79,46.79,0,0,1,46.79,46.79"/><path class="cls-3" d="M403.38,168a42.06,42.06,0,0,1-84.13,0V149.73a41.73,41.73,0,0,1,2-12.86c5.47-16.9,40-29.21,40-29.21s33.23,11.3,39.3,27.1a41.69,41.69,0,0,1,2.77,15V168"/><path class="cls-3" d="M410.74,165.86a7.71,7.71,0,1,1-7.71-7.71,7.71,7.71,0,0,1,7.71,7.71"/><path class="cls-3" d="M327.32,165.86a7.71,7.71,0,1,1-7.71-7.71,7.71,7.71,0,0,1,7.71,7.71"/><path class="cls-3" d="M383.75,111.88c0,5.62-10,10.17-22.43,10.17s-22.44-4.55-22.44-10.17,10-10.17,22.44-10.17,22.43,4.55,22.43,10.17"/><path class="cls-7" d="M378.33,105.25c3.38,1.78,5.42,4.1,5.42,6.62a6.38,6.38,0,0,1-2.6,4.76c8.32,4.69,16.7,10.94,19.47,18.13a41.69,41.69,0,0,1,2.77,15v6.51c1.31.52,2.59,1.09,3.85,1.72a46.87,46.87,0,0,0-28.9-52.71"/><path class="cls-7" d="M344.3,105.26a46.87,46.87,0,0,0-28.63,54,7.69,7.69,0,0,1,3.58-1.07v-8.42a41.73,41.73,0,0,1,2-12.86c2.58-8,11.62-14.91,20.46-20-1.82-1.47-2.86-3.17-2.86-5,0-2.53,2-4.84,5.42-6.62"/><path class="cls-8" d="M381.15,116.63c-3.77,3.22-11.23,5.41-19.83,5.41-8.41,0-15.74-2.09-19.58-5.19-8.84,5.11-17.89,12.06-20.46,20a41.57,41.57,0,0,0-2,12.86v8.42h.35a7.71,7.71,0,0,1,5.19,13.42,45.13,45.13,0,0,1,7.34,18.67,17.19,17.19,0,0,1,3.8-.5h.73a17.09,17.09,0,0,1,2,.15,48.42,48.42,0,0,1,64.75-33.65v-6.51a41.69,41.69,0,0,0-2.77-15c-2.76-7.19-11.14-13.45-19.46-18.13"/><path class="cls-8" d="M319.61,158.15a7.69,7.69,0,0,0-5.53,2.33,45.62,45.62,0,0,1,10.71,11.09,7.71,7.71,0,0,0-5.19-13.42"/><path class="cls-7" d="M361.32,101.72h-1c-6.38.13-12.08,1.47-16,3.53-3.38,1.78-5.42,4.09-5.42,6.62,0,5.62,10,10.17,22.44,10.17s22.43-4.55,22.43-10.17c0-2.53-2-4.85-5.42-6.62-4.11-2.17-10.21-3.54-17-3.54"/><path class="cls-3" d="M247.75,102.47c0,23.74-16.59,43-43.55,43s-43.55-19.24-43.55-43S176.92,65,203.89,65s43.87,13.69,43.87,37.43"/><path class="cls-3" d="M242.94,120.76c0,23.24-15.5,42.25-38.74,42.25s-38.74-19-38.74-42.25V102.45c0-4.5,2.47-8.84,3.79-12.92,5.49-17,8.25-29.33,34.94-29.33s28.11,11.34,34.2,27.22c1.8,4.67,4.54,9.74,4.54,15v18.31"/><path class="cls-3" d="M248.58,118.65a7.75,7.75,0,1,1-7.74-7.74,7.74,7.74,0,0,1,7.74,7.74"/><path class="cls-3" d="M175.33,118.65a7.75,7.75,0,1,1-7.74-7.74,7.74,7.74,0,0,1,7.74,7.74"/><path class="cls-3" d="M170.09,95c-2.29,6.7-4,17.61-4.56,18.09-.42.33-2.36-.51-2.74-1.23-2.2-4.11-3.56-15.27,2.38-25.5,15.65-26.92,10.89-5.35,10.41-3.88s-2.78,4.61-5.49,12.52"/><path class="cls-3" d="M237.86,95c2.29,6.7,4,17.61,4.56,18.09.42.33,2.36-.51,2.74-1.23,2.2-4.11,3.56-15.27-2.38-25.5-15.65-26.92-10.89-5.35-10.41-3.88s2.78,4.61,5.49,12.52"/><path class="cls-3" d="M197.57,140.85c-1.68,0-9.15-1.45-9.14-2.33s7.46-2.31,12.81-6.84c.44-.37,3.71,4.49,3.39,6.5-.22,1.4-4.33,2.67-7.06,2.67"/><path class="cls-3" d="M205.1,134.57c.5,2.17-.19,4.27-1.56,4.71s-2.87-1-3.37-3.13.19-4.28,1.55-4.71,2.87,1,3.38,3.13"/><path class="cls-3" d="M210.84,140.85c1.68,0,9.15-1.45,9.14-2.33s-7.46-2.31-12.81-6.84c-.44-.37-3.71,4.49-3.38,6.5.22,1.4,4.32,2.67,7.05,2.67"/><path class="cls-3" d="M203.31,134.57c-.5,2.17.19,4.27,1.56,4.71s2.87-1,3.37-3.13-.19-4.28-1.55-4.71-2.87,1-3.38,3.13"/><path class="cls-9" d="M176.27,71.85c-10,6.28-15.61,16.73-15.61,30.63,0,.87,0,1.74.07,2.61l.33.17a28.43,28.43,0,0,1-.14-3,31.8,31.8,0,0,1,4.26-15.9c5.94-10.21,8.93-13.44,10.35-13.44h.11c.21-.36.43-.72.65-1.07"/><path class="cls-9" d="M232.07,72c.17.29.33.58.49.87,1.46.18,4.45,3.51,10.22,13.43a31.8,31.8,0,0,1,4.26,15.9c0,.27,0,.53,0,.79l.73-.06v-.51c0-13.75-5.67-24.13-15.69-30.43"/><path class="cls-8" d="M189.88,139.34a47,47,0,0,1,1,8.9,18.22,18.22,0,0,1,10.58-7.72l.11-.31a14.34,14.34,0,0,1-4,.64,37.72,37.72,0,0,1-7.69-1.5M204.79,60.2h-1.15c-15.61.1-22.89,4.52-27.38,11.64-.22.35-.44.71-.65,1.07.75.1,1,1.2,1,2.63a32,32,0,0,1-1,6.92c-.47,1.47-2.78,4.61-5.49,12.52a123.19,123.19,0,0,0-3.25,13,46.87,46.87,0,0,1,22.69,29.81c2.27-1,7.61-2.63,11.71-6.11l0,0a1.59,1.59,0,0,1,.45-.22,1.62,1.62,0,0,1,.44-.08,8.47,8.47,0,0,1-.06-1,8.14,8.14,0,0,1,8.14-8.14,8.8,8.8,0,0,1,1.19.09,52.83,52.83,0,0,1,28.84-18.16A90.17,90.17,0,0,0,237.86,95c-2.71-7.91-5-11.06-5.49-12.52a32.21,32.21,0,0,1-1.05-6.92c0-1.5.28-2.64,1.11-2.64h.12c-.15-.29-.32-.59-.49-.87a23.67,23.67,0,0,0-3-4.18c-4.38-4.76-11.27-7.58-24.25-7.66"/><path class="cls-9" d="M175.51,72.91c-1.41,0-4.41,3.23-10.35,13.45a31.78,31.78,0,0,0-4.26,15.9,29.76,29.76,0,0,0,.14,3h0a47,47,0,0,1,5.76,2.72,123.15,123.15,0,0,1,3.25-13c2.71-7.91,5-11.06,5.49-12.52a31.88,31.88,0,0,0,1.05-6.92c0-1.43-.25-2.54-1-2.63h-.11"/><path class="cls-9" d="M232.43,72.91c-.84,0-1.11,1.14-1.11,2.64a32.21,32.21,0,0,0,1.05,6.92c.47,1.47,2.78,4.61,5.49,12.52a90.92,90.92,0,0,1,2.42,9.11A50.33,50.33,0,0,1,247,103c0-.26,0-.52,0-.79a31.78,31.78,0,0,0-4.26-15.9c-5.94-10.21-8.94-13.45-10.35-13.45"/><path class="cls-9" d="M201.28,131.66l0,0c-4.11,3.47-9.44,5.13-11.71,6.11.13.52.25,1,.35,1.56a37.79,37.79,0,0,0,7.69,1.5,14.13,14.13,0,0,0,4-.65c.13-.4.27-.79.41-1.19a4.64,4.64,0,0,1-1.77-2.85,6.73,6.73,0,0,1-.17-1.4,3.72,3.72,0,0,1,1.27-3.1"/><path class="cls-9" d="M202.17,131.37a1.73,1.73,0,0,0-.89.3,3.69,3.69,0,0,0-1.27,3.1,6.09,6.09,0,0,0,.17,1.4,4.62,4.62,0,0,0,1.77,2.85q.56-1.55,1.2-3.07a6.45,6.45,0,0,1,.17-1.37,8,8,0,0,1-1.14-3.21"/><path class="cls-9" d="M203.31,134.58a6.1,6.1,0,0,0-.16,1.37l.42-1-.26-.4"/><path class="cls-3" d="M303.82,157.35c0,43.35-22.67,27.7-51.69,27.7s-53.4,12.72-53.4-27.7c0-29,23.53-54.5,52.54-54.5s52.54,25.48,52.54,54.5"/><path class="cls-3" d="M298.33,177.62a47,47,0,1,1-94.09,0V157.24a46.69,46.69,0,0,1,2.26-14.38c6.12-18.9,16-32.66,44.78-32.66s37.17,12.63,44,30.3a46.71,46.71,0,0,1,3.09,16.74v20.38"/><path class="cls-3" d="M306.56,175.27a8.62,8.62,0,1,1-8.62-8.62,8.62,8.62,0,0,1,8.62,8.62"/><path class="cls-3" d="M213.25,175.27a8.62,8.62,0,1,1-8.62-8.62,8.62,8.62,0,0,1,8.62,8.62"/><path class="cls-3" d="M210.73,129.67v8.62H255.4c15.5,0,29.16,2.24,37.17-9.74,0,0-7.61-22.57-41.81-22.57s-40,23.7-40,23.7"/><path class="cls-3" d="M202.11,130.31a8.14,8.14,0,1,0,8.14-8.14,8.14,8.14,0,0,0-8.14,8.14"/><g class="cls-10"><path class="cls-11" d="M251.29,102.86c-1.43,0-2.85.06-4.26.18a50.3,50.3,0,0,0-6.75,1.06,52.84,52.84,0,0,0-28.83,18.17,8,8,0,0,1,2.38.74c4.44-7,14.68-17,36.93-17,34.21,0,41.81,22.57,41.81,22.57a22.34,22.34,0,0,1-1.65,2.19,90.87,90.87,0,0,1,4.32,9.76,46.71,46.71,0,0,1,2.87,12.19,26.56,26.56,0,0,1,5.66,2.13c-1.14-23.88-18.09-44.88-40.57-50.49-1.38-.34-2.78-.63-4.19-.85a49.23,49.23,0,0,0-7.72-.61"/></g><path class="cls-11" d="M203.57,135a55.78,55.78,0,0,0-2.14,5.55,18.21,18.21,0,0,1,4.34-.61h.74q.49,0,1,0c.21-.6.43-1.19.66-1.78a8.14,8.14,0,0,1-4.57-3.21"/><path class="cls-12" d="M290.91,130.73c-5.79,6.74-13.94,7.72-23.35,7.72-3.87,0-7.95-.17-12.17-.17H211.89a8.39,8.39,0,0,1-1.65.17,8,8,0,0,1-2.1-.28c-.22.59-.44,1.18-.66,1.78a18.2,18.2,0,0,1,16.86,18.15v.3c1.48.57,2.94,1.19,4.35,1.89a.49.49,0,0,1,0,.09,51.08,51.08,0,0,1,18.42,15.47,45.58,45.58,0,0,1,23.62-21.05c4-2.11,9.91-3.44,16.52-3.44a43.33,43.33,0,0,1,10.86,1.31,46.62,46.62,0,0,0-2.87-12.19,89.4,89.4,0,0,0-4.32-9.76"/><path class="cls-11" d="M250.76,106c-22.25,0-32.49,10-36.93,17a8.14,8.14,0,0,1-1.94,15.28H255.4c4.22,0,8.3.17,12.17.17,10.35,0,19.17-1.19,25-9.91,0,0-7.61-22.57-41.81-22.57"/><path class="cls-11" d="M210.25,122.18a8.13,8.13,0,1,0,3.58.83,8.23,8.23,0,0,0-2.38-.75,8.94,8.94,0,0,0-1.2-.09"/><path class="cls-3" d="M190.84,148.86A46.8,46.8,0,1,1,144,102.06a46.79,46.79,0,0,1,46.79,46.79"/><path class="cls-3" d="M186.11,168A42.06,42.06,0,0,1,102,168V149.73a41.73,41.73,0,0,1,2-12.86c5.47-16.9,40-29.21,40-29.21s33.23,11.3,39.3,27.1a41.69,41.69,0,0,1,2.77,15V168"/><path class="cls-3" d="M193.47,165.86a7.71,7.71,0,1,1-7.71-7.71,7.71,7.71,0,0,1,7.71,7.71"/><path class="cls-3" d="M110,165.86a7.71,7.71,0,1,1-7.71-7.71,7.71,7.71,0,0,1,7.71,7.71"/><path class="cls-3" d="M166.49,111.88c0,5.62-10,10.17-22.43,10.17s-22.44-4.55-22.44-10.17,10-10.17,22.44-10.17,22.43,4.55,22.43,10.17"/><path class="cls-7" d="M161.07,105.25c3.38,1.78,5.42,4.09,5.42,6.62a6.4,6.4,0,0,1-2.6,4.76c8.32,4.68,16.7,10.94,19.46,18.13a41.68,41.68,0,0,1,2.77,15v8.42a7.63,7.63,0,0,1,1.83.31v-.35a18.09,18.09,0,0,1,2.9-9.87,47,47,0,0,0-1-8.9c-.11-.52-.22-1-.35-1.56a46.88,46.88,0,0,0-28.46-32.53"/><path class="cls-7" d="M127,105.26A46.87,46.87,0,0,0,97.65,155c1.42-.43,2.86-.81,4.34-1.11v-4.17a41.73,41.73,0,0,1,2-12.86c2.58-8,11.62-14.91,20.46-20-1.82-1.47-2.86-3.16-2.86-5,0-2.53,2-4.84,5.41-6.62"/><path class="cls-8" d="M163.88,116.63C160.12,119.86,152.65,122,144,122c-8.41,0-15.73-2.09-19.58-5.19-8.84,5.11-17.89,12.06-20.46,20a41.73,41.73,0,0,0-2,12.86v4.17a48.43,48.43,0,0,1,56.46,34.42,51,51,0,0,1,20-25,7.71,7.71,0,0,1,7.27-5.15h.35v-8.42a41.69,41.69,0,0,0-2.77-15c-2.76-7.19-11.14-13.45-19.46-18.13"/><path class="cls-8" d="M185.76,158.15a7.71,7.71,0,0,0-7.28,5.15,50.78,50.78,0,0,1,9.46-4.82v0a7.57,7.57,0,0,0-2.18-.31"/><path class="cls-7" d="M144,101.72q-1.86,0-3.63.13a35.07,35.07,0,0,0-13.4,3.41c-3.37,1.78-5.41,4.09-5.41,6.62,0,5.62,10,10.17,22.44,10.17s22.43-4.55,22.43-10.17c0-2.53-2-4.85-5.41-6.62h0l-.33-.17c-4.11-2.07-10.06-3.37-16.68-3.37"/><rect class="cls-3" x="63.52" y="201.12" width="96.77" height="41.45"/><path class="cls-3" d="M160.19,201.25a48.36,48.36,0,1,1-48.36-48.36,48.36,48.36,0,0,1,48.36,48.36"/><path class="cls-3" d="M155.79,210a44,44,0,1,1-44-44,44,44,0,0,1,44,44"/><path class="cls-3" d="M155.72,186.34v20.3H107.37a48.31,48.31,0,0,1-40.23-21.52s8.23-24.84,45.26-24.84,43.33,26.06,43.33,26.06"/><g class="cls-13"><path class="cls-14" d="M135.18,247.31c-.75.46-1.5.91-2.28,1.33a23.37,23.37,0,0,1,1.66,1.67q.26-1.52.62-3M63.52,238q0,1.07,0,2.16v23.21a37.62,37.62,0,0,1,9.71-8.67,25.16,25.16,0,0,1,11.53-10q-1.26-1-2.46-2.08H63.52V238"/></g><path class="cls-14" d="M63.52,203.41v39.15H82.25A44,44,0,0,1,72,228.7a48.05,48.05,0,0,1-8.5-25.29"/><g class="cls-13"><path class="cls-14" d="M155.72,212.59c-.08,1.39-.22,2.77-.43,4.13l1-.72q-.34-1.69-.56-3.41M111.83,152.9a48.35,48.35,0,0,0-48.36,48.36q0,1.09,0,2.16A48.09,48.09,0,0,0,72,228.7a44.07,44.07,0,0,1,0-37.39,48.33,48.33,0,0,1-4.92-6.2s8.23-24.84,45.26-24.84,43.33,26.06,43.33,26.06v13a50.42,50.42,0,0,1,2.71-11,48.37,48.37,0,0,0-46.61-35.43"/></g><path class="cls-14" d="M112.39,160.28c-37,0-45.26,24.84-45.26,24.84a48.31,48.31,0,0,0,40.23,21.52H155.3v-1.29a51.83,51.83,0,0,1,.43-6v-13s-6.29-26.06-43.33-26.06"/><path class="cls-3" d="M429.55,186.34v20.3H381.19A48.31,48.31,0,0,1,341,185.11s8.23-24.84,45.26-24.84,43.33,26.06,43.33,26.06"/><path class="cls-14" d="M434,242.57h-4.08a26.29,26.29,0,0,1,3.61,4.75c.23-1.56.39-3.14.47-4.75"/><g class="cls-15"><path class="cls-14" d="M434.12,201.11H434v.14a48.16,48.16,0,0,1-8.54,27.46,43.65,43.65,0,0,1-4.89,8,23.78,23.78,0,0,1,9.29,5.82h4.25V201.11"/></g><path class="cls-14" d="M385.65,152.9a48.37,48.37,0,0,0-47,37,17.29,17.29,0,0,1,6.78,2.41c.14-.34.3-.67.45-1a48.33,48.33,0,0,1-4.92-6.2s8.23-24.84,45.26-24.84,43.33,26.06,43.33,26.06v20.29h-.06q.14,1.7.13,3.41a43.77,43.77,0,0,1-4.15,18.67A48.15,48.15,0,0,0,434,201.25v-.14a48.35,48.35,0,0,0-48.36-48.22"/><path class="cls-16" d="M345.87,191.31l-.45,1a17.45,17.45,0,0,1,8.35,14.9v.29c1.42.54,2.82,1.15,4.18,1.81a.51.51,0,0,0,0,.09,48.94,48.94,0,0,1,24.38,27.53c4.74-1.76,10.75-2.74,18.57-2.79h1.24c7.88,0,13.82,1,18.43,2.62a43.78,43.78,0,0,0,9-26.71q0-1.72-.13-3.41h-48.3a48.23,48.23,0,0,1-35.32-15.32"/><path class="cls-14" d="M386.22,160.28c-37,0-45.26,24.84-45.26,24.84a48.31,48.31,0,0,0,40.23,21.52h48.36v-20.3s-6.29-26.06-43.33-26.06"/><path class="cls-3" d="M257,206a50.85,50.85,0,1,1-50.84-50.84A50.84,50.84,0,0,1,257,206"/><path class="cls-3" d="M252.36,215.22A46.22,46.22,0,1,1,206.14,169a46.22,46.22,0,0,1,46.22,46.22"/><path class="cls-3" d="M156.28,198.13a45,45,0,0,0,72.52-35.68c0-.73-.07-1.43-.11-2.15a50.69,50.69,0,0,0-72.41,37.83"/><path class="cls-3" d="M224.34,158.11a18.2,18.2,0,1,0-18.2,18.2,18.2,18.2,0,0,0,18.2-18.2"/><g class="cls-17"><path class="cls-18" d="M187.94,158.48a50.89,50.89,0,0,0-32.22,40.86,51.8,51.8,0,0,0-.43,6v1.25a50.88,50.88,0,0,0,1,9.39c1.19-.84,2.42-1.64,3.67-2.38a46.17,46.17,0,0,1,1.94-11.78,45.22,45.22,0,0,1-5.61-3.7,50.91,50.91,0,0,1,31.66-39.52,1.05,1.05,0,0,1,0-.13"/></g><path class="cls-18" d="M228.7,160.39c0,.69.11,1.36.11,2.06a45.12,45.12,0,0,1-1.52,11.65,46.44,46.44,0,0,1,15.64,13.12,45,45,0,0,1,4.19-11.36,51,51,0,0,0-18.42-15.47"/><g class="cls-17"><path class="cls-19" d="M161.89,201.83A45.93,45.93,0,0,0,160,213.61a53.58,53.58,0,0,1,7.84-3.83,33.45,33.45,0,0,1,8.37-2.9,44.73,44.73,0,0,1-14.27-5m65.39-27.73a45.15,45.15,0,0,1-32.76,32.12,37.11,37.11,0,0,1,12.14,3.57,53.54,53.54,0,0,1,20,13.73,8.12,8.12,0,0,1,4.73-1.51,9,9,0,0,1,1.2.09,55.88,55.88,0,0,1,6.86-7,7.23,7.23,0,0,1-.15-1.49,7.48,7.48,0,0,1,3.66-6.44,45.82,45.82,0,0,1,0-19.95,46.45,46.45,0,0,0-15.64-13.12"/><path class="cls-18" d="M224.34,158.42a18.2,18.2,0,0,1-36.39.2,50.91,50.91,0,0,0-31.66,39.52,45,45,0,0,0,19.87,8.74,52.7,52.7,0,0,1,11.07-1.13,55.23,55.23,0,0,1,7.3.47,45.09,45.09,0,0,0,34.29-43.77c0-.7-.07-1.37-.11-2.06a.57.57,0,0,1,0-.1q-2.13-1-4.36-1.88"/><path class="cls-18" d="M206.51,139.91h-.74a18.22,18.22,0,1,0,1.72,0q-.49,0-1,0"/></g><path class="cls-3" d="M332.65,197.11a45.41,45.41,0,1,1-45.4-45.4,45.4,45.4,0,0,1,45.4,45.4"/><path class="cls-3" d="M328.06,215.64a40.81,40.81,0,1,1-81.63,0V198a40.61,40.61,0,0,1,2-12.48c5.31-16.39,38.85-28.34,38.85-28.34s32.25,11,38.13,26.29A40.45,40.45,0,0,1,328.06,198v17.69"/><path class="cls-3" d="M335.2,213.61a7.48,7.48,0,1,1-7.48-7.48,7.48,7.48,0,0,1,7.48,7.48"/><path class="cls-3" d="M254.26,213.61a7.48,7.48,0,1,1-7.48-7.48,7.48,7.48,0,0,1,7.48,7.48"/><path class="cls-3" d="M309,161.23c0,5.45-9.74,9.86-21.77,9.86s-21.77-4.42-21.77-9.86,9.75-9.86,21.77-9.86S309,155.78,309,161.23"/><path class="cls-20" d="M303.77,154.81c3.27,1.73,5.25,4,5.25,6.42a6.19,6.19,0,0,1-2.52,4.61c8.07,4.55,16.21,10.62,18.89,17.59a40.15,40.15,0,0,1,2.26,8.61,17.44,17.44,0,0,1,4.5-1.8,45.15,45.15,0,0,0-7.34-18.67,45.57,45.57,0,0,0-21-16.76"/><path class="cls-20" d="M270.73,154.81A45.46,45.46,0,0,0,243,207.16a7.46,7.46,0,0,1,3.47-1V198a40.61,40.61,0,0,1,2-12.48c2.5-7.73,11.28-14.47,19.86-19.43-1.77-1.42-2.77-3.07-2.77-4.82,0-2.45,2-4.69,5.25-6.42"/><path class="cls-21" d="M306.49,165.84c-3.65,3.12-10.9,5.25-19.24,5.25-8.15,0-15.27-2-19-5-8.58,5-17.36,11.71-19.86,19.43a40.77,40.77,0,0,0-2,12.48v8.17h.34a7.41,7.41,0,0,1,4.35,1.39,49.5,49.5,0,0,1,21.31-4.83,50.73,50.73,0,0,1,33.14,12.55,48.79,48.79,0,0,1,13.28-7.68c0-.12,0-.24,0-.36A17.46,17.46,0,0,1,327.63,192a40.08,40.08,0,0,0-2.26-8.61c-2.68-7-10.81-13.05-18.89-17.59"/><g class="cls-22"><path class="cls-21" d="M246.77,206.12a7.48,7.48,0,0,0-7.48,7.48,7.62,7.62,0,0,0,.15,1.49,53.2,53.2,0,0,1,11.68-7.58,7.46,7.46,0,0,0-4.35-1.39"/></g><path class="cls-20" d="M287.25,151.37c-6.61,0-12.53,1.33-16.52,3.44-3.27,1.73-5.25,4-5.25,6.42,0,5.45,9.75,9.86,21.77,9.86S309,166.67,309,161.23c0-2.45-2-4.7-5.25-6.42h0a26.39,26.39,0,0,0-5.65-2.13,43.55,43.55,0,0,0-10.86-1.31"/><path class="cls-3" d="M144.55,281.49c2.66,7.77,4.58,20.41,5.29,21,.48.38,2.74-.59,3.18-1.41,2.54-4.77,4.13-17.7-2.76-29.56-18.13-31.18-12.62-6.19-12.06-4.5s3.22,5.35,6.36,14.51"/><path class="cls-3" d="M362,274.45c-2.66,7.77-4.58,20.41-5.29,21-.48.38-2.74-.59-3.18-1.41-2.54-4.77-4.13-17.7,2.76-29.56,18.13-31.18,12.62-6.19,12.06-4.5s-3.22,5.35-6.36,14.51"/><path class="cls-3" d="M385.09,253.12a48.78,48.78,0,1,1-48.78-48.78,48.78,48.78,0,0,1,48.78,48.78"/><path class="cls-3" d="M380.66,262a44.35,44.35,0,1,1-44.35-44.35A44.35,44.35,0,0,1,380.66,262"/><path class="cls-3" d="M288.47,245.59a43.19,43.19,0,0,0,69.58-34.23c0-.69-.07-1.37-.11-2.06a48.64,48.64,0,0,0-69.47,36.29"/><path class="cls-3" d="M353.77,207.2a17.46,17.46,0,1,0-17.46,17.46,17.46,17.46,0,0,0,17.46-17.46"/><path class="cls-23" d="M318.85,207.56a48.71,48.71,0,0,0-13.28,7.68l.17.15a48.63,48.63,0,0,1,13.11-7.7,1.05,1.05,0,0,1,0-.13"/><path class="cls-23" d="M358,209.39c0,.66.1,1.31.1,2a43.22,43.22,0,0,1-1.46,11.18,44.38,44.38,0,0,1,19.88,58.26,48.55,48.55,0,0,0,8.61-27.07v-1.23A48.73,48.73,0,0,0,358,209.39"/><path class="cls-23" d="M353.77,207.49a17.46,17.46,0,0,1-34.91.19,48.63,48.63,0,0,0-13.11,7.7,55.86,55.86,0,0,1,19.09,38,43.26,43.26,0,0,0,33.22-42.07c0-.66-.07-1.31-.1-2a.53.53,0,0,1,0-.09c-1.36-.66-2.76-1.27-4.18-1.81"/><path class="cls-23" d="M336.67,189.74h-.73a17.4,17.4,0,1,0,2.7.15,18.36,18.36,0,0,0-2-.15"/><path class="cls-3" d="M240.68,259.59a53.46,53.46,0,1,1-53.46-53.46,53.46,53.46,0,0,1,53.46,53.46"/><path class="cls-3" d="M235.27,281.42a48.05,48.05,0,1,1-96.1,0V260.6a47.69,47.69,0,0,1,2.31-14.69c6.25-19.3,45.74-33.36,45.74-33.36s38,12.9,44.89,31a47.59,47.59,0,0,1,3.16,17.1v20.82"/><path class="cls-3" d="M243.68,279a8.81,8.81,0,1,1-8.81-8.81,8.81,8.81,0,0,1,8.81,8.81"/><path class="cls-3" d="M148.38,279a8.81,8.81,0,1,1-8.81-8.81,8.81,8.81,0,0,1,8.81,8.81"/><path class="cls-3" d="M212.85,217.35c0,6.42-11.47,11.61-25.63,11.61s-25.63-5.19-25.63-11.61,11.47-11.61,25.63-11.61,25.63,5.19,25.63,11.61"/><path class="cls-23" d="M167.79,209.78a53.58,53.58,0,0,0-32.61,37.53q-.35,1.49-.62,3a54.17,54.17,0,0,0,.51,21.13,8.86,8.86,0,0,1,4.1-1.22V260.6a47.68,47.68,0,0,1,2.31-14.69c2.94-9.1,13.27-17,23.38-22.88-2.08-1.67-3.26-3.61-3.26-5.67,0-2.9,2.34-5.54,6.2-7.57"/><path class="cls-23" d="M206.67,209.79c3.85,2,6.18,4.67,6.18,7.56,0,2-1.08,3.81-3,5.43a80.91,80.91,0,0,1,13.63,9.4,8,8,0,0,1-.26-2,8.12,8.12,0,0,1,3.41-6.63,53.54,53.54,0,0,0-20-13.73"/><g class="cls-24"><path class="cls-25" d="M209.88,222.78c-4.3,3.67-12.83,6.18-22.66,6.18-9.61,0-18-2.39-22.36-5.94-10.1,5.85-20.43,13.78-23.38,22.88a47.68,47.68,0,0,0-2.31,14.69v9.62h.39a8.81,8.81,0,0,1,0,17.62,48.24,48.24,0,0,0,47.19,41.64h.85a48.22,48.22,0,0,0,43.72-29.13,46.7,46.7,0,0,1-5.57-16.62h0a8.62,8.62,0,0,1-5.11-15.57,69.06,69.06,0,0,1-.77-11,54.69,54.69,0,0,1,4.83-22.38,8.2,8.2,0,0,1-1.21-2.62,80.49,80.49,0,0,0-13.63-9.4"/><path class="cls-25" d="M139.57,270.21a8.82,8.82,0,0,0-8.81,8.63v.35a8.82,8.82,0,0,0,8.81,8.63h0a8.81,8.81,0,0,0,0-17.62"/><path class="cls-23" d="M187.22,205.74a52.28,52.28,0,0,0-11.06,1.14,33.23,33.23,0,0,0-8.37,2.9c-3.86,2-6.2,4.68-6.2,7.57,0,6.42,11.47,11.61,25.63,11.61s25.63-5.19,25.63-11.61c0-2.89-2.33-5.54-6.18-7.56a37.23,37.23,0,0,0-12.15-3.57,55.17,55.17,0,0,0-7.3-.47"/></g><path class="cls-3" d="M325,257.18c0,43.35-22.67,27.7-51.69,27.7s-53.4,12.72-53.4-27.7c0-29,23.53-54.5,52.54-54.5S325,228.16,325,257.18"/><path class="cls-3" d="M319.47,277.45a47,47,0,1,1-94.09,0V257.06a46.69,46.69,0,0,1,2.26-14.38c6.12-18.9,16-32.66,44.78-32.66s37.17,12.63,44,30.3a46.71,46.71,0,0,1,3.09,16.74v20.38"/><path class="cls-3" d="M327.7,275.09a8.62,8.62,0,1,1-8.62-8.62,8.62,8.62,0,0,1,8.62,8.62"/><path class="cls-3" d="M234.39,275.09a8.62,8.62,0,1,1-8.62-8.62,8.62,8.62,0,0,1,8.62,8.62"/><path class="cls-3" d="M231.87,229.49v8.62h44.67c15.5,0,29.16,2.24,37.17-9.74,0,0-7.61-22.57-41.81-22.57s-40,23.7-40,23.7"/><path class="cls-3" d="M223.25,230.14a8.14,8.14,0,1,0,8.14-8.14,8.14,8.14,0,0,0-8.14,8.14"/><g class="cls-26"><path class="cls-11" d="M272.43,202.68a49.5,49.5,0,0,0-21.31,4.83,52.82,52.82,0,0,0-11.68,7.58,55.53,55.53,0,0,0-6.86,7,8,8,0,0,1,2.38.74c4.44-7,14.68-17,36.93-17,34.21,0,41.81,22.57,41.81,22.57a23.1,23.1,0,0,1-1.66,2.19,89.27,89.27,0,0,1,4.32,9.75,46.71,46.71,0,0,1,3.09,16.74v9.42a8.55,8.55,0,0,1,4.86,1.78,85.84,85.84,0,0,0,.63-11.07c0-1.26,0-2.51-.13-3.75a55.87,55.87,0,0,0-19.09-38l-.17-.14a50.73,50.73,0,0,0-33.14-12.55"/></g><path class="cls-11" d="M224.71,234.8a54.69,54.69,0,0,0-4.83,22.38,69.24,69.24,0,0,0,.77,11,8.53,8.53,0,0,1,4.73-1.67v-9.42a46.69,46.69,0,0,1,2.26-14.38c.52-1.59,1.06-3.15,1.64-4.67a8.14,8.14,0,0,1-4.57-3.21"/><path class="cls-11" d="M271.9,205.8c-22.26,0-32.49,10-36.93,17A8.14,8.14,0,0,1,233,238.12h43.51c4.22,0,8.3.17,12.17.17,10.35,0,19.17-1.18,25-9.91,0,0-7.61-22.57-41.81-22.57"/><path class="cls-11" d="M231.39,222a8.13,8.13,0,1,0,3.58.83,8.21,8.21,0,0,0-2.39-.75,8.82,8.82,0,0,0-1.19-.09"/></g><g id="circle"><animateTransform attributeName="transform" attributeType="XML" type="rotate" from="0 250 250" to="360 250 250" dur="7s" repeatCount="indefinite" /><polyline class="cls-27" points="299.56 444.63 279.72 462.32 304.96 470.67"/><path class="cls-28" d="M249.73,468.5C130.5,468.32,33.89,371.61,33.89,252.33S130.67,36.17,250.05,36.17,466.21,133,466.21,252.33c0,101.76-70.3,187.08-165,210.07L300,457.22C392.3,434.8,460.88,351.57,460.87,252.33A210.83,210.83,0,1,0,249.73,463.16"/></g></svg>
