<?xml version="1.0" encoding="utf-8"?>
<!-- Generator: Adobe Illustrator 21.1.0, SVG Export Plug-In . SVG Version: 6.00 Build 0)  -->
<svg version="1.1" id="Layer_1" xmlns="http://www.w3.org/2000/svg" xmlns:xlink="http://www.w3.org/1999/xlink" x="0px" y="0px"
	 width="264.5px" height="62.3px" viewBox="0 0 264.5 62.3" style="enable-background:new 0 0 264.5 62.3;" xml:space="preserve">
<style type="text/css">
	.st0{fill:#E0E0E0;}
	.st1{fill:none;stroke:#E0E0E0;stroke-width:1.5;stroke-miterlimit:10;}
	.st2{fill:none;stroke:#E0E0E0;stroke-width:2;stroke-miterlimit:10;}
</style>
<g>
	<path class="st0" d="M19.3,11h-17v38.7h17v2.2H0V9.3h19.3V11z M12.1,28.8v1.8h-3v-1.8H12.1z"/>
	<path class="st0" d="M36,42.2v6.6v3h-2.3V9.3H36V42.2z M53,51.9H42.7v-2.2H53V51.9z"/>
	<path class="st0" d="M77.7,51.9h-2.4V9.3h2.4V51.9z"/>
	<path class="st0" d="M183,11h-17v38.7h17v2.2h-19.3V9.3H183V11z M175.8,28.8v1.8h-3v-1.8H175.8z"/>
	<path class="st0" d="M199.6,34.5c0,2.7,0.3,5.1,0.8,7c0.9,3.4,2.5,5.9,4.9,7.5c0.9,0.6,1.8,1,2.6,1.1l-0.6,2
		c-1.5-0.4-2.6-0.8-3.3-1.2c-2.8-1.7-4.6-4.4-5.6-8.2c-0.7-2.1-1-4.7-1-7.8V9.3h2.3L199.6,34.5L199.6,34.5z M223.6,40.8
		c0.5-2.2,0.8-4.6,0.8-7.1V9.3h1.8v24.6c0,3.2-0.3,6-0.8,8.4c-1.1,4-3,6.8-5.7,8.3c-1.1,0.6-2.1,1-3.2,1.3l-0.8-1.9
		c0.8-0.1,1.7-0.5,2.7-1.1C220.8,47.3,222.6,44.7,223.6,40.8z"/>
	<path class="st0" d="M241.1,14.6V9.5h8.7c2.3,0,4.3,0.2,6,0.7c1.4,0.3,2.7,1,3.9,1.9s2,2,2.5,3.2s0.8,2.8,0.8,4.6
		c0,2.4-0.8,4.6-2.3,6.6c-1.3,1.6-3.2,2.9-5.6,3.8l9.5,21.7H262l-9.8-22.6c1-0.1,1.9-0.3,2.9-0.8c0.1-0.1,0.9-0.5,2.5-1.4
		c1-1,1.7-2.1,2.2-3.2c0.5-1.2,0.8-2.5,0.8-4c0-1.4-0.3-2.7-0.8-3.8c-0.5-1.1-1.2-2-2.1-2.6c-0.8-0.7-1.9-1.2-3.5-1.6
		c-1.4-0.4-2.9-0.6-4.7-0.6h-5.2h-0.8v0.9v2.3C243.5,14.6,241.1,14.6,241.1,14.6z M243.3,47.8V52H241V37h2.3V47.8z"/>
</g>
<path class="st1" d="M138.5,9.7l-17.4,19l-17.4-19h3.7L121,24.3l13.8-14.6C134.8,9.7,138.5,9.7,138.5,9.7z M121.1,38.2l-13.6,14.5
	h-3.7l17.4-18.9l17.4,18.9H135L121.1,38.2z"/>
<rect x="95.6" y="1" class="st2" width="51" height="60.3"/>
</svg>
