<?xml version="1.0" encoding="utf-8"?>
<!-- Generator: Adobe Illustrator 18.0.0, SVG Export Plug-In . SVG Version: 6.00 Build 0)  -->
<!DOCTYPE svg PUBLIC "-//W3C//DTD SVG 1.1//EN" "http://www.w3.org/Graphics/SVG/1.1/DTD/svg11.dtd">
<svg version="1.1" id="Layer_1" xmlns="http://www.w3.org/2000/svg" xmlns:xlink="http://www.w3.org/1999/xlink" x="0px" y="0px"
	 viewBox="0 426 1000 148" enable-background="new 0 426 1000 148" xml:space="preserve">
<g>
	<path fill="#FFFFFF" d="M42.6,496.4c9.1,8.1,18.2,16.5,18.2,28.2c0,14.8-7.3,23.5-22.4,23.5c-17.5,0-22-11.5-22-33h10.2
		c0,13,1.4,22.8,11.8,22.8c8.1,0,12.2-5,12.2-13.2c0-7.4-7.4-14.4-13.3-19.3l0.1,0.1c-9.4-6.7-20.2-17.7-20.2-30.5
		c0-13,8.3-23.1,21.8-23.1c18.9,0,20.9,14.1,20.9,31.8H49.8c0-10.9-0.7-21.6-10.6-21.6c-7.7,0-11.6,6.2-11.6,13.6
		c0,7.7,7.6,14.1,15.1,20.9C42.6,496.6,42.6,496.4,42.6,496.4z M20.2,519c0,15.4,4.1,25.2,18.2,25.2C51,544.2,57,537,57,524.6
		c0-20.4-33.5-29.8-33.5-48.9c0-9.5,5.3-17.5,15.5-17.5c13.6,0,14.4,12,14.6,21.7H56c0-14.6-3-24.2-17-24.2
		c-11.2,0-17.9,8.5-17.9,19.3c0,11.3,10,21.2,18.6,27.5h-0.1c6.6,5.5,14.8,14.4,14.8,22.3c0,10.6-5.3,17.1-16.1,17.1
		c-13.9,0-15.5-13.3-15.5-22.8C22.8,519,20.2,519,20.2,519z"/>
	<path fill="#FFFFFF" d="M92.5,547.3H82.1v-43c-10.9-28.7-16.2-42.9-19.3-51.4h10.9L87.4,489c4.6-12,9.5-24.7,13.7-36.1h10.9
		l-19.6,51.4C92.5,504.3,92.5,547.3,92.5,547.3z M68.4,456.7c5.6,15.8,11.8,31.2,17.7,46.9v39.8h2.7v-39.7l17.8-46.9h-2.7
		l-16.4,43.4l-16.4-43.4L68.4,456.7L68.4,456.7z"/>
	<path fill="#FFFFFF" d="M115,452.9h8.5l25.2,62.5v-62.5H159v94.4h-8.5c-5.5-13.2-11.6-28.7-25.2-62.5v62.5H115V452.9z M121.5,464.6
		c10.6,26.3,20.9,52.5,31.5,78.7h2.1v-86.7h-2.4v78.7l-31.7-78.7h-2.2v86.7h2.7L121.5,464.6L121.5,464.6z"/>
	<path fill="#FFFFFF" d="M215,514.9c0,17.7-2.1,33.2-23.1,33.2c-16.2,0-23.2-11.5-23.2-26.5v-43.3c0-15,7.1-26.5,23.4-26.5
		c18.8,0,23,11.5,23,33.2h-10.4c0-11.6-0.5-23-12.6-23c-9.2,0-13,7.6-13,16.2v43.3c0,8.7,3.6,16.4,12.9,16.4
		c11.1,0,12.7-10,12.7-23.1L215,514.9L215,514.9z M172.6,521.6c0,12.7,5.7,22.7,19.3,22.7c15.8,0,19.2-12,19.2-25.5h-2.5
		c0,11.5-2.5,23-16.7,23c-11.9,0-16.8-9.5-16.8-20.2v-43.3c0-10.6,5-20.2,17-20.2c14.1,0,16.5,11.3,16.5,23h2.5
		c0-15.5-5.3-25.3-19-25.3c-13.6,0-19.5,9.8-19.5,22.5V521.6z"/>
	<path fill="#FFFFFF" d="M252.9,547.3v-41.8h-22v41.7h-10.2v-94.4h10.2v42.4h22v-42.4h10.2v94.4H252.9z M227,456.7h-2.4v86.7h2.4
		v-41.7h29.7v41.7h2.7v-86.7h-2.7v42.6H227V456.7z"/>
	<path fill="#FFFFFF" d="M291,452.9c18.1,0,22.3,10.8,22.3,26.5c0,7.1-1.3,15.5-6.5,20.7c4.3,4.1,5.9,11.1,5.9,17.4v29.8h-10.2
		v-29.4c0-8.7-3-12.3-11.8-12.3h-9.6v41.7h-10.2v-94.4H291z M309,517.4c0-7.4-1.8-15.1-10.2-17.1c9.2-2.8,10.6-12.6,10.6-21
		c0-13.3-3.5-22.7-18.3-22.7h-16.4v86.7h2.7v-41.8h13.5c11.8,0,15.5,4.9,15.5,16.2v25.5h2.7L309,517.4L309,517.4z M290.5,459.3
		c13.7,0,16.4,8.1,16.4,20c0,13.3-3.5,19.7-17.7,19.7h-11.9v-39.8H290.5z M289.2,495.2c11.1,0,13.7-5.2,13.7-15.8
		c0-9.7-2-16.2-12.5-16.2h-9.3v32.1H289.2z"/>
	<path fill="#FFFFFF" d="M365.5,521.6c0,15.1-6.6,26.5-23.1,26.5c-16.2,0-23.2-11.6-23.2-26.5v-43.3c0-14.3,7.3-26.5,23.2-26.5
		c16.1,0,23.1,12.2,23.1,26.5V521.6z M323.1,521.6c0,12.6,5.7,22.7,19.3,22.7c13.9,0,19.2-9.8,19.2-22.7v-43.3
		c0-12.2-5.7-22.8-19.2-22.8c-13.3,0-19.3,10.6-19.3,22.8V521.6z M325.6,479.6c0-10.6,4.5-21.3,16.8-21.3
		c12.7,0,16.7,10.4,16.7,21.4v41.2c0,11.2-4.1,20.7-16.7,20.7s-16.8-10.1-16.8-21.2V479.6z M355.2,479.8c0-9-3-17.5-12.7-17.5
		c-9.5,0-13,8.5-13,17.4v40.9c0,9,3.4,17.4,13,17.4c9.8,0,12.7-7.8,12.7-17V479.8z"/>
	<path fill="#FFFFFF" d="M371.7,452.9h8.5l25.2,62.5v-62.5h10.2v94.4h-8.5c-5.5-13.2-11.6-28.7-25.2-62.5v62.5h-10.2V452.9z
		 M378.1,464.6c10.6,26.3,20.9,52.5,31.5,78.7h2.1v-86.7h-2.4v78.7l-31.7-78.7h-2.2v86.7h2.7L378.1,464.6L378.1,464.6z"/>
	<path fill="#FFFFFF" d="M436.4,452.9v94.4h-10.2v-94.4H436.4z M429.9,543.3h2.7v-86.7h-2.7V543.3z"/>
	<path fill="#FFFFFF" d="M491.8,514.9c0,17.7-2.1,33.2-23.1,33.2c-16.2,0-23.2-11.5-23.2-26.5v-43.3c0-15,7.1-26.5,23.4-26.5
		c18.8,0,23,11.5,23,33.2h-10.4c0-11.6-0.5-23-12.6-23c-9.2,0-13,7.6-13,16.2v43.3c0,8.7,3.6,16.4,12.9,16.4
		c11.1,0,12.7-10,12.7-23.1L491.8,514.9L491.8,514.9z M449.4,521.6c0,12.7,5.7,22.7,19.3,22.7c15.8,0,19.2-12,19.2-25.5h-2.5
		c0,11.5-2.5,23-16.7,23c-11.9,0-16.8-9.5-16.8-20.2v-43.3c0-10.6,5-20.2,17-20.2c14.1,0,16.5,11.3,16.5,23h2.5
		c0-15.5-5.3-25.3-19-25.3c-13.6,0-19.5,9.8-19.5,22.5V521.6z"/>
	<path fill="#FFFFFF" d="M509.9,452.9v94.4h-10.2v-94.4H509.9z M503.4,543.3h2.7v-86.7h-2.7V543.3z"/>
	<path fill="#FFFFFF" d="M542.9,547.1h-10.2V463H517v-10.2h41.6V463h-15.7V547.1z M536.5,459.2v84.2h2.7v-84.2h15.7v-2.5H521v2.5
		H536.5z"/>
	<path fill="#FFFFFF" d="M593.2,547.3h-10.4v-43c-10.9-28.7-16.2-42.9-19.3-51.4h10.9l13.7,36.1c4.6-12,9.5-24.7,13.7-36.1h10.9
		l-19.6,51.4V547.3z M569.1,456.7c5.6,15.8,11.8,31.2,17.7,46.9v39.8h2.7v-39.7l17.8-46.9h-2.7l-16.4,43.4l-16.4-43.4L569.1,456.7
		L569.1,456.7z"/>
	<path fill="#FFFFFF" d="M660.3,452.9v94.4h-10.2v-94.4H660.3z M653.8,456.7v86.7h2.7v-86.7H653.8z"/>
	<path fill="#FFFFFF" d="M669.7,452.9h8.5l25.2,62.5v-62.5h10.2v94.4h-8.5c-5.5-13.2-11.6-28.7-25.2-62.5v62.5h-10.2V452.9z
		 M676.1,464.6c10.6,26.3,20.9,52.5,31.5,78.7h2.1v-86.7h-2.4v78.7l-31.7-78.7h-2.2v86.7h2.7L676.1,464.6L676.1,464.6z"/>
	<path fill="#FFFFFF" d="M761.8,495.3v10.2h-38v-10.2H761.8z M727.8,499.2v2.5H758v-2.5H727.8z"/>
	<path fill="#FFFFFF" d="M794.4,496.4c9.1,8.1,18.2,16.5,18.2,28.2c0,14.8-7.3,23.5-22.4,23.5c-17.5,0-22-11.5-22-33h10.2
		c0,13,1.4,22.8,11.8,22.8c8.1,0,12.2-5,12.2-13.2c0-7.4-7.4-14.4-13.3-19.3l0.1,0.1c-9.4-6.7-20.2-17.7-20.2-30.5
		c0-13,8.3-23.1,21.8-23.1c18.9,0,20.9,14.1,20.9,31.8h-10.2c0-10.9-0.7-21.6-10.6-21.6c-7.7,0-11.6,6.2-11.6,13.6
		c0,7.7,7.6,14.1,15.1,20.9L794.4,496.4L794.4,496.4z M772,519c0,15.4,4.1,25.2,18.2,25.2c12.6,0,18.6-7.1,18.6-19.6
		c0-20.5-33.5-29.8-33.5-48.9c0-9.5,5.3-17.5,15.5-17.5c13.6,0,14.4,12,14.6,21.7h2.4c0-14.6-3-24.2-17-24.2
		c-11.2,0-17.9,8.5-17.9,19.3c0,11.3,10,21.2,18.6,27.5h-0.1c6.6,5.5,14.8,14.4,14.8,22.3c0,10.6-5.3,17.1-16.1,17.1
		c-13.9,0-15.5-13.3-15.5-22.8C774.6,519,772,519,772,519z"/>
	<path fill="#FFFFFF" d="M829.8,452.9v94.4h-10.2v-94.4H829.8z M823.4,543.3h2.7v-86.7h-2.7V543.3z"/>
	<path fill="#FFFFFF" d="M885.6,521.8c0,14.1-7.1,26.3-23.1,26.3c-16.1,0-23.2-11.9-23.2-26.3v-43.5c0-14.6,7.4-26.3,23.5-26.3
		c17.5,0,22.4,12.2,22.4,31.4h-10.2c0-10.8-1.8-21.2-12.2-21.2c-9.7,0-13.3,8.3-13.3,17.4v42.3c0,8.8,3.9,16.2,13,16.2
		c8.8,0,12.9-7.8,12.9-16.2v-16.4h-15.1v-10.2h25.3L885.6,521.8L885.6,521.8z M843.1,521.8c0,12.3,6,22.5,19.3,22.5
		c13.3,0,19.3-10.5,19.3-22.5v-22.7H864v2.4h15.3v20.3c0,10.4-5.3,20-16.8,20c-11.8,0-16.8-9.2-16.8-20v-42.3
		c0-11.2,4.6-21.3,17.1-21.3c12.3,0,16.1,10.8,16.1,21.7h2.5c0-13.7-5.3-24.1-18.6-24.1s-19.6,10.1-19.6,22.4L843.1,521.8
		L843.1,521.8z"/>
	<path fill="#FFFFFF" d="M926.2,547.3v-41.8h-22v41.7H894v-94.4h10.2v42.4h22v-42.4h10.2v94.4H926.2z M900.3,456.7h-2.4v86.7h2.4
		v-41.7H930v41.7h2.7v-86.7H930v42.6h-29.7V456.7z"/>
	<path fill="#FFFFFF" d="M967.9,547.1h-10.2V463H942v-10.2h41.6V463h-15.7V547.1z M961.5,459.2v84.2h2.7v-84.2h15.7v-2.5h-33.9v2.5
		H961.5z"/>
</g>
</svg>
