<svg xmlns="http://www.w3.org/2000/svg" viewBox="0 0 595.28 841.89">
  <defs>
    <style>
      .cls-1,
      .cls-2,
      .cls-3,
      .cls-4,
      .cls-5 {
        fill: none;
        stroke: #231f20;
        stroke-miterlimit: 10;
      }
      .cls-2 {
        stroke-width: 1.08px;
      }
      .cls-3 {
        stroke-width: 1.14px;
      }
      .cls-4 {
        stroke-width: 1.08px;
      }
      .cls-5 {
        stroke-width: 1.15px;
      }
    </style>
  </defs>
  <title>Artboard 1</title>
  
  <g id="bmf"><line class="cls-2" x1="468.13" y1="228.06" x2="337.78" y2="188.02"/><polyline class="cls-2" points="374.65 546.23 468.13 515.82 468.13 228.06"/><polyline class="cls-2" points="337.78 188.02 205.28 227.96 205.85 403.31"/><line class="cls-3" x1="237.03" y1="218.39" x2="374.08" y2="257.29"/><line class="cls-3" x1="261.55" y1="225.35" x2="360.03" y2="194.9"/><line class="cls-3" x1="292.85" y1="234.23" x2="390.09" y2="204.2"/><line class="cls-3" x1="319.91" y1="241.91" x2="417.8" y2="212.76"/><line class="cls-3" x1="353.98" y1="251.58" x2="452.65" y2="223.54"/><line class="cls-4" x1="308.83" y1="210.73" x2="337.94" y2="220.31"/><line class="cls-5" x1="370.46" y1="226.86" x2="403.49" y2="237.51"/><polyline class="cls-2" points="205.28 227.96 337.77 268.61 337.77 432.29"/><line class="cls-2" x1="337.77" y1="268.61" x2="468.13" y2="227.96"/></g>
  <g id="pmf"><polyline class="cls-1" points="349.41 538 349.41 435.97 226.52 397.11 102.56 434.98 102.56 601.48 226.59 639.25 267.32 620.27"/><polyline class="cls-1" points="349.41 435.97 226.51 472.58 102.56 434.98"/><line class="cls-1" x1="226.51" y1="472.58" x2="226.51" y2="639.25"/><polygon class="cls-3" points="118.25 434.98 226.51 402.19 335 435.67 226.51 467 118.25 434.98"/><polyline class="cls-3" points="118.25 434.98 229.34 429.95 287.49 449.39"/><line class="cls-3" x1="229.34" y1="429.95" x2="226.51" y2="402.19"/></g>
  <g id="psf"><polygon class="cls-1" points="267.32 563.85 348.73 538.03 431.5 563.84 431.5 626.12 350.18 652.11 267.32 626.91 267.32 563.85"/><polyline class="cls-1" points="267.32 563.85 349.39 588.74 431.5 563.84"/><line class="cls-1" x1="349.39" y1="588.74" x2="349.39" y2="652.11"/><ellipse class="cls-3" cx="349.84" cy="563.63" rx="49.08" ry="14.04"/><polyline class="cls-3" points="315.98 553.47 345.07 563.46 341.01 577.13"/><line class="cls-3" x1="345.08" y1="563.46" x2="398.92" y2="563.63"/></g>
</svg>
