<?xml version="1.0" encoding="utf-8"?>
<!-- Generator: Adobe Illustrator 21.0.2, SVG Export Plug-In . SVG Version: 6.00 Build 0)  -->
<svg version="1.1" id="Layer_1" xmlns="http://www.w3.org/2000/svg" xmlns:xlink="http://www.w3.org/1999/xlink" x="0px" y="0px"
	 viewBox="0 0 2000 904" style="enable-background:new 0 0 2000 904;" xml:space="preserve">
<style type="text/css">
	.st0{fill:#FFFFFF;}
	.st1{fill:#A8A7A7;}
	.st2{opacity:0.35;fill:#A8A7A7;enable-background:new    ;}
	.st3{display:none;}
	.st4{display:inline;}
</style>
<g>
	<rect x="374.5" y="72.4" class="st0" width="215.6" height="215.6"/>
	<rect x="95.1" y="346.1" class="st0" width="215.6" height="215.6"/>
	<g>
		
			<rect x="97.6" y="57.8" transform="matrix(0.9142 -0.4053 0.4053 0.9142 -49.4947 97.4508)" class="st1" width="215.6" height="215.6"/>
		
			<rect x="97.6" y="57.8" transform="matrix(0.9142 -0.4053 0.4053 0.9142 -49.4947 97.4508)" class="st2" width="215.6" height="215.6"/>
	</g>
	<g>
		
			<rect x="377" y="344.6" transform="matrix(0.747 -0.6648 0.6648 0.747 -178.139 436.7544)" class="st1" width="215.6" height="215.6"/>
		
			<rect x="377" y="344.6" transform="matrix(0.747 -0.6648 0.6648 0.747 -178.139 436.7544)" class="st2" width="215.6" height="215.6"/>
	</g>
	<rect x="644.7" y="346.1" class="st0" width="215.6" height="215.6"/>
	<rect x="644.7" y="72.4" class="st0" width="215.6" height="215.6"/>
	<rect x="95.1" y="627" class="st0" width="215.6" height="215.6"/>
	<g>
		
			<rect x="634.8" y="601.1" transform="matrix(0.9142 -0.4053 0.4053 0.9142 -223.5762 361.811)" class="st1" width="215.6" height="215.6"/>
		
			<rect x="634.8" y="601.1" transform="matrix(0.9142 -0.4053 0.4053 0.9142 -223.5762 361.811)" class="st2" width="215.6" height="215.6"/>
	</g>
	<rect x="364.6" y="626.3" class="st0" width="215.6" height="215.6"/>
	<g>
		<path class="st0" d="M1066.3,153.2v67.4h19.1v30.5H1012v-30.5h18.4V53.9H1012V23.4h99.6c20.6,0,35.1,4.6,42.9,13.8
			c6,6.7,9.2,17.7,9.2,33v30.5c0,19.9-4.6,33.7-13.1,42.2c-7.8,6.7-20.6,10.6-38.3,10.6L1066.3,153.2L1066.3,153.2z M1066.3,55.3
			V122h39.7c9.2,0,15.2-1.4,18.4-4.6c2.8-3.2,4.6-9.9,4.6-21.6V76.7c0-9.2-1.4-14.5-4.6-17.7c-2.8-2.8-9.2-3.9-19.1-3.9
			C1105.3,55.3,1066.3,55.3,1066.3,55.3z"/>
		<path class="st0" d="M1252.5,161v-32.3h-29.1v92.6h17.7v28.4h-68.8v-28.4h18.4v-91.8h-18.4v-28.4h72.7c13.1,0,22,2.5,27.3,6
			c7.8,5.3,12.4,16.3,12.4,31.2v23h-32.3V161H1252.5z"/>
		<path class="st0" d="M1301.4,214.6v-72.7c0-19.1,5.3-31.2,16.3-36.9c5.3-2.8,13.8-3.9,24.5-3.9h39.4c16.3,0,27,4.6,32.3,13.1
			c2.8,5.3,5.3,14.5,5.3,25.9v66.7c0,11.3-0.7,19.1-1.4,23.8c-3.9,14.5-14.5,21.6-32.3,21.6h-40.8c-13.1,0-22-1.4-27-3.9
			C1306.8,241.9,1301.4,230.5,1301.4,214.6z M1334.8,128.7v94h49.6v-94H1334.8z"/>
		<path class="st0" d="M1566.3,23.4v198.9h17.7v28.4h-91.1c-14.5,0-24.5-1.4-29.8-4.6c-6-3.9-10.6-9.2-13.1-16.3
			c-1.4-4.6-2.5-12.4-2.5-22v-65.2c0-13.8,2.5-24.5,6.7-30.5c6-7.8,17.7-10.6,35.1-10.6h42.2V51.9h-18.4V23.5L1566.3,23.4
			L1566.3,23.4z M1481.9,129.8v92.6h50.4v-92.6H1481.9z"/>
		<path class="st0" d="M1692.2,222.4v-92.6h-18.4v-28.4h51.4v120.9h18.4v28.4h-89.7c-13.8,0-23-1.4-29.1-5.3
			c-6.7-3.9-11.3-9.9-13.8-17.7c-1.4-5.3-2.5-13.1-2.5-23.8v-74.1h-17.7v-28.4h52.1v120.9L1692.2,222.4L1692.2,222.4z"/>
		<path class="st0" d="M1839.4,154.3v-24.5h-42.9v92.6h42.9v-25.9h32.3v54.3h-65.6c-13.1,0-23-1.4-28.4-5.3
			c-9.9-6-15.2-16.7-15.2-33.7v-69.6c0-14.5,2.8-25.2,8.5-31.2c5.3-6,16.3-9.9,31.2-9.9h70.6v52.8h-33v0.4H1839.4z"/>
		<path class="st0" d="M1939.7,55.3v46.1h23v28.4h-23v92.6h23v28.4h-22c-10.6,0-19.1-2.5-24.5-6c-7.8-5.3-10.6-16.3-10.6-31.2v-83.4
			h-18.4v-28.4h18.4V55.7C1905,55.3,1939.7,55.3,1939.7,55.3z"/>
	</g>
	<g>
		<path class="st0" d="M1240.1,368.5h-18.4v166.7h18.4v30.5H1188V391.9l-51.4,109.6h-25.9l-46.5-109.3v173h-52.1v-30.5h19.1V368.5
			h-19.1V338h58.9l54.3,123l56-123h58.9v30.5H1240.1z"/>
		<path class="st0" d="M1371.7,454.3v82.6h17.7v28.4h-87.9c-15.2,0-25.9-2.5-32.3-6c-9.2-6-13.8-16.7-13.8-31.2
			c0-16.3,1.4-27,5.3-33c5.3-9.2,16.3-13.8,33-13.8h44.3v-37.6h-48.2v22h-32.3v-16.3c0-23,12.4-34.4,36.9-34.4h40.8
			c12.4,0,21.6,2.5,27,7.8C1368.8,429.8,1371.7,439.4,1371.7,454.3z M1289.7,507.8v30.5h48.2v-30.5H1289.7z"/>
		<path class="st0" d="M1480.5,476.3V444h-29.1v92.6h17.7V565h-68.8v-28.4h18.4V444h-18.4v-28.4h72.7c13.1,0,22,2.5,27.3,6
			c7.8,5.3,12.4,16.3,12.4,31.2v23h-32.3v0.5H1480.5z"/>
		<path class="st0" d="M1572,480.2l45-64.2h38.3v28.4h-20.6l-30.5,42.2l46.1,50.4h18.4v28.4H1629l-56-67.4v67.4h-52V537h18.4V366.3
			H1521v-28.4h52.1v142.3H1572z"/>
		<path class="st0" d="M1716.3,500.7v36.9h49.6V516h32.3v17.7c0,21.6-12.4,32.3-36.9,32.3h-40.8c-13.8,0-24.5-3.9-29.8-10.6
			c-4.6-6-7.8-16.7-7.8-32.3v-65.2c0-14.5,2.5-24.5,6-30.5c3.9-5.3,8.5-9.2,14.5-10.6c3.9-0.7,9.9-1.4,18.4-1.4h37.6
			c11.3,0,19.9,1.4,25.2,4.6c8.5,4.6,13.1,14.5,13.1,29.1v51.4H1716L1716.3,500.7L1716.3,500.7z M1716.3,443.3v33h49.6v-33H1716.3z"
			/>
		<path class="st0" d="M1866.3,369.9V416h23v28.4h-23V537h23v28.4h-22c-10.6,0-19.1-2.5-24.5-6c-7.8-5.3-10.6-16.3-10.6-31.2v-83.3
			h-18.4v-28.4h18.4v-46.3L1866.3,369.9L1866.3,369.9z"/>
	</g>
	<g>
		<path class="st0" d="M1129.1,720.6v-36.9H1077v67.4h65.2v30.5H1077v68.1h19.1v30.5H1022v-30.5h19.1V683H1022v-30.5h140.8v67.4
			h-33.7L1129.1,720.6L1129.1,720.6z"/>
		<path class="st0" d="M1220.2,731.2v120.9h18.4v28.4H1168v-28.4h18.4v-92.6H1168v-28.3H1220.2z M1184.8,689.7
			c0-4.6,1.4-9.2,5.3-13.1s7.8-5.3,12.4-5.3s9.2,1.4,12.4,5.3c3.9,3.9,5.3,7.8,5.3,13.1c0,4.6-1.4,9.2-5.3,13.1s-7.8,5.3-12.4,5.3
			s-9.2-1.4-12.4-5.3C1187.3,699,1184.8,695.1,1184.8,689.7z"/>
		<path class="st0" d="M1299.7,685.1v46.1h23v28.4h-23v92.6h23v28.4h-22c-10.6,0-19.1-2.5-24.5-6c-7.8-5.3-10.6-16.3-10.6-31.2
			v-83.3h-18.4v-28.4h18.4v-46.1L1299.7,685.1L1299.7,685.1z"/>
	</g>
</g>
<g class="st3">
	<path class="st4" d="M1585.8,1350.2H1572v42.9h-7.8v-42.9h-13.8v-6.7h35.1L1585.8,1350.2L1585.8,1350.2z"/>
	<path class="st4" d="M1631.9,1393.1v-25.9l-15.2,23l-15.2-23v25.9h-7.8V1341l23,34.4l23-34.4v52.1H1631.9z"/>
</g>
</svg>
