<?xml version="1.0" encoding="utf-8"?>
<!-- Generator: Adobe Illustrator 21.1.0, SVG Export Plug-In . SVG Version: 6.00 Build 0)  -->
<svg version="1.1" id="Layer_1" xmlns="http://www.w3.org/2000/svg" xmlns:xlink="http://www.w3.org/1999/xlink" x="0px" y="0px"
	 width="598px" height="350px" viewBox="0 0 598 350" style="enable-background:new 0 0 598 350;" xml:space="preserve">
<style type="text/css">
	.st0{display:none;}
	.st1{display:inline;}
	.st2{fill:#FFFFFF;}
	.st3{fill:none;stroke:#FFFFFF;stroke-width:20;stroke-miterlimit:10;}
	.st4{fill:none;stroke:#FFFFFF;stroke-width:14.9332;stroke-miterlimit:10;}
	.st5{fill:none;stroke:#FFFFFF;stroke-width:14.9387;stroke-miterlimit:10;}
	.st6{fill:none;stroke:#FFFFFF;stroke-width:16;stroke-miterlimit:10;}
</style>
<g class="st0">
	<path class="st1" d="M511.8,558.2h-6.7v21.1h-3.8v-21.1h-6.8v-3.3h17.3V558.2L511.8,558.2z"/>
	<path class="st1" d="M534.4,578.8V566l-7.5,11.2l-7.5-11.2v12.8h-3.7v-25.3l11.2,17l11.2-17v25.7h-3.7V578.8z"/>
</g>
<g>
	<path class="st2" d="M242.4,281.7v-13.5h-19.2V293h23.9v11.2h-23.9v25.1h7.1v11.2H203v-11.2h7.1v-61.4H203v-11.2h51.9v24.8h-12.4
		L242.4,281.7L242.4,281.7z"/>
	<path class="st2" d="M275.9,285.6v44.6h6.8v10.4h-26v-10.4h6.8V296h-6.8v-10.4H275.9L275.9,285.6z M263.3,270.4
		c0-1.7,0.6-3.4,2.1-4.8c1.4-1.4,2.8-2.1,4.5-2.1s3.4,0.6,4.5,2.1c1.4,1.4,2.1,2.8,2.1,4.8c0,1.7-0.6,3.4-2.1,4.8
		c-1.4,1.4-2.8,2.1-4.5,2.1s-3.4-0.6-4.5-2.1C263.9,273.8,263.3,272.4,263.3,270.4z"/>
	<path class="st2" d="M305.3,268.7v17h8.4v10.4h-8.4v34.1h8.4v10.4h-8.1c-3.9,0-7.1-0.9-9-2.2c-2.8-2.1-3.9-5.9-3.9-11.6v-30.7h-6.8
		v-10.5h6.8v-17L305.3,268.7L305.3,268.7z"/>
</g>
<g>
	<path class="st2" d="M246.6,13.4c4.8,0,8.4,1.4,11.2,4.2c2.9,2.8,4.2,6.8,4.2,11.9v15.3c0,5.6-1.7,10.1-4.8,13.5
		c-3.1,3.4-7.4,4.8-12.8,4.8h-20.3v26.5h8.1V102h-29.9V89.6h7.7V25.8h-7.7V13.4H246.6L246.6,13.4z M224.1,51.3h18.1
		c1.7,0,3.1-0.6,3.9-1.7c0.9-1.2,1.4-3.1,1.4-5.6V32.8c0-2.5-0.6-4.2-1.4-5.4s-2.2-1.7-3.9-1.7h-18.1V51.3L224.1,51.3L224.1,51.3z"
		/>
	<path class="st2" d="M268.1,90.8h6.8V55h-6.8V43.8H298c4.5,0,7.9,1.2,10.4,3.4c2.2,2.2,3.4,5.6,3.4,9.8v10.1H299V55h-11.6v35.8h6.8
		V102H268L268.1,90.8L268.1,90.8z"/>
	<path class="st2" d="M330.1,102.1c-3.7,0-6.8-0.9-8.7-2.8c-2.1-2.1-3.1-4.8-3.1-8.1V55c0-3.7,1.2-6.5,3.1-8.4
		c2.1-2.1,4.8-2.8,8.7-2.8h19.2c3.9,0,6.8,0.9,8.7,2.8c2.1,2.1,3.1,4.8,3.1,8.4v35.8c0,3.7-1.2,6.3-3.1,8.1
		c-2.1,2.1-5.1,2.8-8.7,2.8h-19.2V102.1z M331.5,90.8h17V55h-17V90.8z"/>
	<path class="st2" d="M371,24.6h-7.7V13.4h20.6v30.4h16.6c4.5,0,7.9,1.2,10.4,3.4c2.2,2.2,3.4,5.6,3.4,9.8v31.8
		c0,4.2-1.2,7.7-3.4,9.8c-2.2,2.2-5.6,3.4-10.4,3.4H371V24.6L371,24.6z M384,90.8h17.5V55H384V90.8L384,90.8z"/>
	<path class="st2" d="M427.9,24.6h-6.8V13.4h19.7v77.2h6.8v11.6h-26.5V90.6h6.8V24.6L427.9,24.6z"/>
	<path class="st2" d="M465.7,102.1c-3.7,0-6.8-0.9-8.7-2.8c-2-2.1-3.1-4.5-3.1-8.1V55c0-3.7,1.2-6.5,3.1-8.4
		c2.1-2.1,4.8-2.8,8.7-2.8h19.2c3.9,0,6.8,0.9,8.7,2.8c2.1,2.1,3.1,4.8,3.1,8.4v22.3h-29.9v13.2h17.1v-6.8h13v7.1
		c0,3.7-1.2,6.3-3.1,8.1c-2.1,2.1-5.1,2.8-8.7,2.8h-19.2L465.7,102.1L465.7,102.1z M467.1,54.9v12.4h17V54.9H467.1z"/>
	<path class="st2" d="M503.6,90.8h6.8V55h-6.8V43.8H574c4.5,0,7.9,1.2,10.4,3.4c2.2,2.2,3.4,5.6,3.4,9.8v33.8h5.4V102h-18.4V55
		h-19.5v35.8h7.1V102h-20V55h-19.2v35.8h6.8V102h-26.5L503.6,90.8L503.6,90.8z"/>
</g>
<g>
	<path class="st2" d="M235.4,209.8c1.7,0,3.1-0.6,3.9-1.7c0.8-1.2,1.2-2.8,1.2-5.1v-10.7c0-2.2-0.3-4.2-1.2-5.1
		c-0.9-1.2-2.1-1.7-3.9-1.7h-17.2c-4.5,0-7.9-1.4-10.7-4.2c-2.5-2.8-3.9-6.5-3.9-11v-17.2c0-4.8,1.4-8.4,3.9-11
		c2.5-2.8,6.3-4.2,10.7-4.2h34.5v22.6h-13.2v-10.7h-17.3c-1.7,0-3.1,0.6-3.9,1.7c-0.8,1.2-1.2,2.8-1.2,5.1v9.8
		c0,2.5,0.3,4.2,1.2,5.4s2.1,1.7,3.9,1.7h17.2c4.5,0,8.1,1.4,10.7,3.9c2.5,2.8,3.9,6.5,3.9,11.2V207c0,4.8-1.4,8.4-3.9,11
		c-2.5,2.8-6.3,4.2-10.7,4.2h-36.7v-24.8h13.8v13.1h18.8L235.4,209.8L235.4,209.8L235.4,209.8z"/>
	<path class="st2" d="M273.8,221.3c-3.7,0-6.3-0.9-8.1-2.8c-2.1-1.7-2.8-4.5-2.8-7.9v-33.8c0-3.4,0.9-6.3,2.8-7.9
		c2.1-1.7,4.5-2.8,8.1-2.8h18.4c3.7,0,6.5,0.9,8.1,2.8c1.7,2.1,2.8,4.5,2.8,7.9v33.9c0,3.4-0.9,5.9-2.8,7.9
		c-2.1,2.1-4.8,2.8-8.1,2.8L273.8,221.3L273.8,221.3z M274.8,211h16.1v-33.8h-16.1V211L274.8,211z"/>
	<path class="st2" d="M315.5,148.4H309v-10.7h18.6v72.9h6.5v11H309v-11h6.5V148.4L315.5,148.4z"/>
	<path class="st2" d="M386.1,166.3v44.6h6.5v10.7h-35.7c-4.2,0-7.7-1.2-9.5-3.1c-2.2-2.2-3.4-5.1-3.4-9.3v-32h-6.8v-10.8h19.1V211
		h17.8v-33.9h-6.5v-10.7L386.1,166.3L386.1,166.3z"/>
	<path class="st2" d="M415,211h8.4v10.7h-7.9c-4.2,0-7.7-1.2-9.5-3.1c-2.2-2.2-3.4-5.1-3.4-9.3v-32.2h-6.4v-10.7h6.5V151H415v15.4
		h8.4v11H415V211L415,211z"/>
	<path class="st2" d="M446.1,211h6.5v10.7h-25.1V211h6.5v-33.8h-6.5v-10.7h18.6V211L446.1,211z M432.2,152.3c0-2.1,0.6-3.4,2.1-4.8
		c1.4-1.4,2.8-2.1,4.8-2.1c1.7,0,3.4,0.6,4.8,2.1c1.4,1.4,2.1,2.8,2.1,4.8c0,2.1-0.6,3.4-2.1,4.8c-1.4,1.2-2.8,2.1-4.8,2.1
		s-3.7-0.6-4.8-2.1C432.8,155.7,432.2,154,432.2,152.3z"/>
	<path class="st2" d="M469.5,221.3c-3.7,0-6.3-0.9-8.1-2.8c-2.1-1.7-2.8-4.5-2.8-7.9v-33.8c0-3.4,0.9-6.3,2.8-7.9s4.5-2.8,8.1-2.8
		h18.4c3.7,0,6.5,0.9,8.1,2.8c1.7,2.1,2.8,4.5,2.8,7.9v33.9c0,3.4-0.9,5.9-2.8,7.9c-2.1,2.1-4.8,2.8-8.1,2.8L469.5,221.3
		L469.5,221.3z M470.4,211h16.1v-33.8h-16.1V211z"/>
	<path class="st2" d="M505,211h6.5v-33.8H505v-10.7h35.5c4.2,0,7.7,1.2,9.8,3.1c2.2,2.2,3.4,5.1,3.4,9.3V211h6.8v10.8h-19.2v-44.6
		h-17.8V211h6.5v10.7h-24.8V211H505L505,211z"/>
</g>
<path class="st3" d="M34.9,88"/>
<polygon class="st4" points="34.4,81.4 101.3,81.4 101.3,15.7 7.8,15.7 7.8,141.2 34.4,141.2 "/>
<line class="st3" x1="28.1" y1="48.7" x2="83.7" y2="48.7"/>
<polyline class="st5" points="153.6,217.9 153.6,198.6 88.8,198.6 88.8,243.7 127.8,243.7 127.8,269.8 88.8,269.8 88.8,302.2 "/>
<polyline class="st5" points="67,191.9 67,324.9 96.1,324.9 "/>
<polyline class="st6" points="135.4,88.7 34.9,88.7 34.9,140.6 128.5,140.6 128.5,189.1 27.7,189.1 "/>
<line class="st6" x1="48.7" y1="113.5" x2="116.1" y2="113.5"/>
<line class="st6" x1="47.5" y1="167.3" x2="114.9" y2="167.3"/>
<line class="st6" x1="127.3" y1="82.1" x2="127.3" y2="108.6"/>
<line class="st6" x1="35.7" y1="170" x2="35.7" y2="188.1"/>
</svg>
